<?xml version="1.0" encoding="UTF-8" standalone="no"?>
<!DOCTYPE svg PUBLIC "-//W3C//DTD SVG 1.1//EN" "http://www.w3.org/Graphics/SVG/1.1/DTD/svg11.dtd">
<svg width="100%" height="100%" viewBox="0 0 1642 2100" version="1.1" xmlns="http://www.w3.org/2000/svg" xmlns:xlink="http://www.w3.org/1999/xlink" xml:space="preserve" xmlns:serif="http://www.serif.com/" style="fill-rule:evenodd;clip-rule:evenodd;stroke-linecap:round;stroke-linejoin:round;stroke-miterlimit:1.5;">
    <g transform="matrix(1,0,0,1,-3140.06,-1851.06)">
        <g id="Face---Side" serif:id="Face - Side" transform="matrix(1,0,0,1,-593,1671)">
            <path id="Blouson" d="M4693,1742L4733,1731L4809,1706L4894,1680L4836,1716L4756,1775L4619,1872L4550,1929L4481,1990L4444,2027L4517,1977L4608,1919L4693,1872L4581,1964L4487,2056L4452,2085L4439,2076L4458,2043L4434,2056L4416,2068L4410,2056L4399,2062L4388.59,2047.7L4343.92,2056L4323,2068L4300,2089L4287,2100L4273,2100L4264,2089L4264,2068L4252,2047.7L4242,2027L4224,2038L4208,2068L4141,2119L4124.36,2140.55L4088,2140.55L4088,2114.92L4079,2137L4064,2161L4051,2194L4048,2171L4035,2134L4032,2152L4019,2134L4000,2089L3978,2043L3972,2030L3972,2006L3992,1990L4035,1953L4064,1925L4088,1904L4118.54,1875.97L4581,1731L4619,1742L4693,1742Z" style="fill:rgb(65,83,73);"/>
            <clipPath id="_clip1">
                <path id="Blouson1" serif:id="Blouson" d="M4693,1742L4733,1731L4809,1706L4894,1680L4836,1716L4756,1775L4619,1872L4550,1929L4481,1990L4444,2027L4517,1977L4608,1919L4693,1872L4581,1964L4487,2056L4452,2085L4439,2076L4458,2043L4434,2056L4416,2068L4410,2056L4399,2062L4388.59,2047.7L4343.92,2056L4323,2068L4300,2089L4287,2100L4273,2100L4264,2089L4264,2068L4252,2047.7L4242,2027L4224,2038L4208,2068L4141,2119L4124.36,2140.55L4088,2140.55L4088,2114.92L4079,2137L4064,2161L4051,2194L4048,2171L4035,2134L4032,2152L4019,2134L4000,2089L3978,2043L3972,2030L3972,2006L3992,1990L4035,1953L4064,1925L4088,1904L4118.54,1875.97L4581,1731L4619,1742L4693,1742Z"/>
            </clipPath>
            <g clip-path="url(#_clip1)">
                <path d="M4707.91,1737.9L4607,1785L4516,1842L4457,1881L4424,1904L4418,1942L4413,1992L4405,2023L4388.59,2047.7L4349.91,1998L4349.91,1971L4318,1992L4287,2031L4264,2068L4224,2079L4208,2068L4105,2271L3972,2218L3877,1965L4067,1862L4118.54,1875.97L4130,1942L4142.86,2005.13L4164,2031L4193,2053L4208,2053L4224,2038L4257,2012L4303,1971L4356.57,1923.4L4433,1811L4581,1731L4707.91,1737.9Z" style="fill:rgb(32,48,43);stroke:rgb(32,48,43);stroke-width:8.33px;"/>
                <path d="M4048,1998L4035,2038L4026,2077L4019,2134" style="fill:none;stroke:black;stroke-width:8.33px;"/>
            </g>
            <path id="Blouson2" serif:id="Blouson" d="M4693,1742L4733,1731L4809,1706L4894,1680L4836,1716L4756,1775L4619,1872L4550,1929L4481,1990L4444,2027L4517,1977L4608,1919L4693,1872L4581,1964L4487,2056L4452,2085L4439,2076L4458,2043L4434,2056L4416,2068L4410,2056L4399,2062L4388.59,2047.7L4343.92,2056L4323,2068L4300,2089L4287,2100L4273,2100L4264,2089L4264,2068L4252,2047.7L4242,2027L4224,2038L4208,2068L4141,2119L4124.36,2140.55L4088,2140.55L4088,2114.92L4079,2137L4064,2161L4051,2194L4048,2171L4035,2134L4032,2152L4019,2134L4000,2089L3978,2043L3972,2030L3972,2006L3992,1990L4035,1953L4064,1925L4088,1904L4118.54,1875.97L4581,1731L4619,1742L4693,1742Z" style="fill:none;stroke:black;stroke-width:16.67px;"/>
            <path id="Hoodie" d="M4897,1113L4913,1105L4957,1092L5002,1081L5035,1076L5068,1074L5098,1078L5177,1081L5219,1086L5258,1092L5270,1105L5295,1148L5322,1199L5362,1282L5366,1293L5356,1303L5325,1311L5344,1325L5331,1349L5313,1368L5209,1400L5086,1457L4913,1530L4983,1514L5086,1490L5035,1525L4874,1611L4771,1661L4674,1705L4631,1734L4703,1705L4752,1691L4693,1742L4645,1758L4566,1777L4529,1790L4506,1804L4479,1832L4440,1864L4416,1889L4411,1911L4404,1968L4392,2036L4362,2139L4332,2198L4338,2113L4346,2036L4353,1968L4357,1918L4332,1935L4302,1956L4277,1975L4254,1988L4225,2003L4204,2003L4187,1998L4165,1988L4154,1980L4147,1975L4140,2026L4132,2096L4120,2166L4079,2271L4088,2166L4088,2113L4100,2036L4111,1959L4120,1923L4125,1911L4120,1886L4111,1824L4104,1765L4100,1734L4102,1708L4116,1684L4140,1653L4182,1611L4245,1547L4287,1508L4318,1481L4340.46,1469.32L4344,1487L4350,1502L4367,1528L4405,1569L4431,1602L4445,1618L4473,1586L4520.19,1536.23L4543.94,1511.33L4582.82,1470.75L4622,1430L4664,1395L4713,1360L4762.44,1328.77L4821.34,1293L4869,1265L4917,1239L4904.09,1202L4897,1149L4897,1113Z" style="fill:rgb(240,223,195);"/>
            <clipPath id="_clip2">
                <path id="Hoodie1" serif:id="Hoodie" d="M4897,1113L4913,1105L4957,1092L5002,1081L5035,1076L5068,1074L5098,1078L5177,1081L5219,1086L5258,1092L5270,1105L5295,1148L5322,1199L5362,1282L5366,1293L5356,1303L5325,1311L5344,1325L5331,1349L5313,1368L5209,1400L5086,1457L4913,1530L4983,1514L5086,1490L5035,1525L4874,1611L4771,1661L4674,1705L4631,1734L4703,1705L4752,1691L4693,1742L4645,1758L4566,1777L4529,1790L4506,1804L4479,1832L4440,1864L4416,1889L4411,1911L4404,1968L4392,2036L4362,2139L4332,2198L4338,2113L4346,2036L4353,1968L4357,1918L4332,1935L4302,1956L4277,1975L4254,1988L4225,2003L4204,2003L4187,1998L4165,1988L4154,1980L4147,1975L4140,2026L4132,2096L4120,2166L4079,2271L4088,2166L4088,2113L4100,2036L4111,1959L4120,1923L4125,1911L4120,1886L4111,1824L4104,1765L4100,1734L4102,1708L4116,1684L4140,1653L4182,1611L4245,1547L4287,1508L4318,1481L4340.46,1469.32L4344,1487L4350,1502L4367,1528L4405,1569L4431,1602L4445,1618L4473,1586L4520.19,1536.23L4543.94,1511.33L4582.82,1470.75L4622,1430L4664,1395L4713,1360L4762.44,1328.77L4821.34,1293L4869,1265L4917,1239L4904.09,1202L4897,1149L4897,1113Z"/>
            </clipPath>
            <g clip-path="url(#_clip2)">
                <path d="M4927,1127L4969,1119L5010,1123L5057,1146L5041,1111L5020,1092L5001,1080L5074,1092L5106,1100L5117,1104L5136,1143L5136,1174L5125,1205L5117,1217.41L5150,1190L5177,1165L5202.39,1143L5230,1119L5250,1100L5257,1107L5266,1127L5259,1147L5227,1183L5202.39,1205L5173.5,1228L5214,1217.41L5224,1208L5197,1247L5173.5,1278L5162,1302L5202.39,1290L5214,1285L5202.39,1300.12L5185,1315L5227,1300.12L5257,1285L5290,1274L5305,1274L5316,1281L5335,1285L5352,1290L5396,1294L5367,996L5020,928L4870,1052L4883,1135L4897,1140L4927,1127Z" style="fill:rgb(180,167,144);stroke:rgb(180,167,144);stroke-width:8.33px;"/>
                <path d="M4685.5,1701L4723,1676L4759,1642L4792,1599L4751,1609L4676,1642L4584,1691L4505,1738L4451,1775L4424,1794L4413,1783L4383,1783L4346,1819L4293,1870L4274,1889L4241,1897L4229.44,1884.28L4221,1878L4212,1870L4197,1889L4182,1897L4163.29,1870L4142,1826L4124.23,1787.08L4117,1767L4117,1730L4130,1701L4142,1691L4142,1712L4147,1738L4152,1749L4175.61,1794L4195,1826L4212,1859L4221,1878L4229.44,1884.28L4244.95,1865.48L4266.94,1837.15L4306.04,1787.08L4355.22,1724.74L4374.04,1701L4406.15,1663.62L4445,1618L4451,1444L4274,1444L3869,1642L3935,2020L4100,1908L4079,2011L4229.44,2079L4451,1995.73L4584,1878L4603,1779L4744,1744L4781,1680L4714,1696L4685.5,1701Z" style="fill:rgb(180,167,144);stroke:rgb(180,167,144);stroke-width:8.33px;"/>
                <path d="M4746,1416L4700,1432L4656,1450L4636,1471L4603,1522L4560,1589L4529,1639L4511,1680L4583.98,1623.47L4617,1583L4656,1536L4700,1485L4722,1450L4746,1416Z" style="fill:rgb(180,167,144);stroke:rgb(180,167,144);stroke-width:8.33px;"/>
                <path d="M5106,1315L5050,1346L5015,1371L4977,1398L4958,1416L5015,1398L5063,1371L5106,1330L5106,1315Z" style="fill:rgb(180,167,144);stroke:rgb(180,167,144);stroke-width:8.33px;"/>
                <path d="M4897,1140L4927,1127L4969,1119L5010,1123L5040,1135L5057,1146L5057,1162L5014,1187L4958,1219L4917,1239L4904.09,1202L4897,1149L4897,1140Z" style="stroke:black;stroke-width:8.33px;"/>
                <path d="M5117,1104L5136,1127L5142,1144L5150,1172L5150,1190L5177,1165L5207,1139L5230,1119L5200,1119L5170,1111L5142,1104L5117,1104Z" style="stroke:black;stroke-width:8.33px;"/>
                <path d="M4385.94,1548.43L4405,1585L4385.94,1625L4343,1680L4319,1704L4326,1658L4330,1575L4312,1650L4301,1744L4301,1775L4282,1799L4252,1819L4231,1819L4221,1804L4216,1725L4221,1604L4200,1672.5L4182,1720L4166,1744L4152,1749L4175,1793L4195,1826L4212,1859L4221,1878L4208,1895L4172,1937L4152,1956L4147,1975L4162.69,1986.32L4182,1995.73L4172,1981L4162.69,1968L4175,1950L4203,1916L4243,1868L4288,1810L4336,1749L4378,1696L4418,1650L4445,1618L4451,1568L4385.94,1548.43" style="stroke:black;stroke-width:8.33px;"/>
                <path d="M4419,1819L4423,1804L4423,1793L4419,1785L4407,1779L4393,1779L4378,1785L4370,1793L4366,1807L4367.93,1833.05L4371,1810L4381,1790L4391,1785L4402,1785L4413,1790L4419,1797L4419,1819Z" style="stroke:black;stroke-width:8.33px;"/>
                <path d="M4155,1938L4159,1925L4159,1912L4155,1901L4147,1895L4136,1895L4130,1899L4124.58,1912L4136,1908L4147,1912L4155,1922L4155,1938Z" style="stroke:black;stroke-width:8.33px;"/>
                <path d="M4529,1790L4489,1808L4439,1837L4416,1853" style="fill:none;stroke:black;stroke-width:8.33px;"/>
                <path d="M4100,1744L4121,1780L4142,1826L4156,1858L4173,1886L4186.98,1919.53" style="fill:none;stroke:black;stroke-width:8.33px;"/>
                <path d="M5150,1190L5091,1239L4986,1320L4916,1382L4833,1450L4747,1509L4681,1555L4613,1601L4511,1680L4443,1730L4399,1772.08L4367.75,1797.85L4332,1832L4291,1873L4261,1900L4240,1921L4221,1943" style="fill:none;stroke:black;stroke-width:8.33px;"/>
                <path d="M4419,1797L4413,1790L4402,1785L4391,1785L4381,1790L4371,1810L4367,1840L4361,1891L4356.88,1919.53L4353.61,1960.43L4347.39,2022.46L4341.15,2082.7L4338,2113L4332,2198L4362,2139L4392,2036L4404,1968L4411,1911L4413,1871L4416,1853L4419,1828L4419,1797Z" style="fill:rgb(240,223,195);stroke:black;stroke-width:16.67px;"/>
                <path d="M4147,1975L4152,1956L4155,1938L4155,1922L4147,1912L4136,1908L4124.58,1912L4120,1923L4111.75,1956L4104.41,2005.14L4093.85,2075.49L4088,2113L4088,2166L4079,2271L4120,2166L4132,2096L4140,2026L4147,1975Z" style="fill:rgb(240,223,195);stroke:black;stroke-width:16.67px;"/>
            </g>
            <path id="Hoodie2" serif:id="Hoodie" d="M4897,1113L4913,1105L4957,1092L5002,1081L5035,1076L5068,1074L5098,1078L5177,1081L5219,1086L5258,1092L5270,1105L5295,1148L5322,1199L5362,1282L5366,1293L5356,1303L5325,1311L5344,1325L5331,1349L5313,1368L5209,1400L5086,1457L4913,1530L4983,1514L5086,1490L5035,1525L4874,1611L4771,1661L4674,1705L4631,1734L4703,1705L4752,1691L4693,1742L4645,1758L4566,1777L4529,1790L4506,1804L4479,1832L4440,1864L4416,1889L4411,1911L4404,1968L4392,2036L4362,2139L4332,2198L4338,2113L4346,2036L4353,1968L4357,1918L4332,1935L4302,1956L4277,1975L4254,1988L4225,2003L4204,2003L4187,1998L4165,1988L4154,1980L4147,1975L4140,2026L4132,2096L4120,2166L4079,2271L4088,2166L4088,2113L4100,2036L4111,1959L4120,1923L4125,1911L4120,1886L4111,1824L4104,1765L4100,1734L4102,1708L4116,1684L4140,1653L4182,1611L4245,1547L4287,1508L4318,1481L4340.46,1469.32L4344,1487L4350,1502L4367,1528L4405,1569L4431,1602L4445,1618L4473,1586L4520.19,1536.23L4543.94,1511.33L4582.82,1470.75L4622,1430L4664,1395L4713,1360L4762.44,1328.77L4821.34,1293L4869,1265L4917,1239L4904.09,1202L4897,1149L4897,1113Z" style="fill:none;stroke:black;stroke-width:16.67px;"/>
            <path id="Visage" d="M4887,1153L4917,1239L4869,1265L4789,1312L4713,1360L4664,1395L4622,1430L4572,1482L4528,1528L4473,1586L4445,1618L4431,1602L4405,1569L4367,1528L4350,1502L4344,1487L4338,1457L4330,1437L4315,1424L4286,1430L4229,1445L4182,1457L4161,1462L4141,1462L4130,1461L4120,1454L4103,1437L4093,1420L4091,1404L4091,1377L4093,1351L4087,1338L4076,1325L4059,1312L4049,1303L4047,1292L4049,1274L4044,1267L4034,1263L4023,1257L4013,1249L4007,1243L4007,1236L4013,1216L4013,1202L4007,1192L3997,1183L3982,1178L3959,1168L3943,1160L3929,1149L3918,1138L3915,1132L3918,1123L3929,1108L3946,1086L3967,1049L3988,1013L3997,992L4007,972L4010,963L4007,955L3997,950L3985,940L3978,930L3973,918L3970,895L3970,771L3997,583L4182,485L4513,771L4545,777L4557,765L4572,751L4586,742L4599,737L4622,737L4637,745L4657,759L4672,775L4684,792L4696,811L4704,832L4707,854L4707,879L4704,899L4776,984L4877,1123L4887,1153Z" style="fill:rgb(248,200,148);"/>
            <clipPath id="_clip3">
                <path id="Visage1" serif:id="Visage" d="M4887,1153L4917,1239L4869,1265L4789,1312L4713,1360L4664,1395L4622,1430L4572,1482L4528,1528L4473,1586L4445,1618L4431,1602L4405,1569L4367,1528L4350,1502L4344,1487L4338,1457L4330,1437L4315,1424L4286,1430L4229,1445L4182,1457L4161,1462L4141,1462L4130,1461L4120,1454L4103,1437L4093,1420L4091,1404L4091,1377L4093,1351L4087,1338L4076,1325L4059,1312L4049,1303L4047,1292L4049,1274L4044,1267L4034,1263L4023,1257L4013,1249L4007,1243L4007,1236L4013,1216L4013,1202L4007,1192L3997,1183L3982,1178L3959,1168L3943,1160L3929,1149L3918,1138L3915,1132L3918,1123L3929,1108L3946,1086L3967,1049L3988,1013L3997,992L4007,972L4010,963L4007,955L3997,950L3985,940L3978,930L3973,918L3970,895L3970,771L3997,583L4182,485L4513,771L4545,777L4557,765L4572,751L4586,742L4599,737L4622,737L4637,745L4657,759L4672,775L4684,792L4696,811L4704,832L4707,854L4707,879L4704,899L4776,984L4877,1123L4887,1153Z"/>
            </clipPath>
            <g clip-path="url(#_clip3)">
                <path d="M4140,1462L4176,1438L4237,1397L4297,1354L4352,1317L4407,1278L4455,1246L4490,1216L4516,1188L4524,1170L4528,1143L4528,1076L4533,1061L4541,1057L4556,1063L4572,1065L4588,1063L4601,1057L4629,1024L4669.05,968.69L4692,938L4706.86,953L4747,1009L4718,991L4699,975L4685,998.083L4647.77,1057L4625,1094L4613,1123L4608.74,1161L4596,1209L4588,1237L4580.93,1180L4580.93,1123L4561,1131L4547,1161L4528,1237L4507,1294L4481,1354L4455,1413L4438,1462L4434,1488L4438,1505L4455,1519L4481,1519L4490,1511L4507,1488L4507,1443L4512,1397L4516,1294L4533,1365L4547,1397L4556,1365L4572,1317L4580.93,1285L4576,1349L4565,1419L4556,1476L4541,1514.41L4601,1646L4416,1711L4158,1618L4140,1462Z" style="fill:rgb(214,142,89);stroke:rgb(214,142,89);stroke-width:8.33px;"/>
                <path d="M4255,709L4230,693L4198.48,665L4187,644L4176,683L4170.84,713.06L4161,696L4140,713.06L4126,743L4126,763L4113.61,737L4105,696L4105,647.531L4078.11,669L4048,709L4031,731L4019,757L4016,788.591L3981,793L3994,842L4003.33,858.711L4019,868L4024,887L4040,896.464L4088,868L4126,848L4157,842L4097.31,881L4078.11,896.464L4088,922.565L4113.61,948.666L4088,948.666L4059,959L4031,970L3989,970L3904,763L3935,592L4213.52,567L4297,665L4255,709Z" style="fill:rgb(214,142,89);stroke:rgb(214,142,89);stroke-width:8.33px;"/>
                <path d="M4533,1469L4528,1504L4521.62,1534.72" style="fill:none;stroke:black;stroke-width:8.33px;"/>
                <path d="M4687.27,944.327L4664,985L4632,1043L4607,1078L4588,1091L4566,1101L4546,1124L4533,1156L4518.62,1193L4501,1222L4467,1261L4393,1374L4353,1435L4347,1469L4347,1534.72L4116,1482.01L4141,1462L4232.25,1400.19L4291.95,1357.62L4455,1246L4490,1216L4516,1188L4524,1170L4527.66,1145.26L4528,1119.58L4528,1076L4533,1061L4541,1057L4556,1063L4572,1065L4588,1063L4601,1057L4629,1024L4655.57,987.309L4687.27,944.327Z" style="stroke:black;stroke-width:8.33px;"/>
                <path id="Oreille" d="M4455,1246L4490,1216L4516,1188L4524,1170L4528,1143L4528,1076L4533,1061L4541,1057L4556,1063L4572,1065L4588,1063L4601,1057L4629,1024L4671,966L4692,938L4697,919L4704,899L4706.86,879.909L4706.86,853L4704,832L4696,811L4684,792L4672,775L4657,759L4637,745L4622,737L4599,737L4586,742L4572,751L4559.34,762.813L4545,777L4538,786L4527,797L4518,811L4512,824" style="fill:none;"/>
                <clipPath id="_clip4">
                    <path id="Oreille1" serif:id="Oreille" d="M4455,1246L4490,1216L4516,1188L4524,1170L4528,1143L4528,1076L4533,1061L4541,1057L4556,1063L4572,1065L4588,1063L4601,1057L4629,1024L4671,966L4692,938L4697,919L4704,899L4706.86,879.909L4706.86,853L4704,832L4696,811L4684,792L4672,775L4657,759L4637,745L4622,737L4599,737L4586,742L4572,751L4559.34,762.813L4545,777L4538,786L4527,797L4518,811L4512,824"/>
                </clipPath>
                <g clip-path="url(#_clip4)">
                    <path d="M4682.65,869L4668,857L4646,846L4617,836L4603,833L4588,836L4567,841L4555,846L4555.44,836L4560,815L4570,799L4580.93,786L4596,775L4609,770L4624,770L4639,775L4651,786L4665,806L4677,825L4681.71,841L4683,861L4682.65,869Z" style="fill:rgb(214,142,89);stroke:rgb(214,142,89);stroke-width:8.33px;"/>
                    <path d="M4538,1015L4545,979L4555,963L4572,944L4584,932L4588,919L4588,906L4576,891L4563,879L4558,869L4555,855L4555,838L4560,815L4570,799L4580.93,786L4596,775L4609,770L4624,770L4639,775L4651,786L4665,806L4677,825L4682,842L4683,861L4682,884L4679,900" style="fill:none;stroke:black;stroke-width:8.33px;"/>
                    <path d="M4560,873L4573,869L4587,866L4600,866L4617,871L4629,877L4638,886L4642,903L4642,915L4637,935L4618,958L4600,965L4584,971L4573,982L4560,994L4540.11,1004.45L4545,979L4555,963L4572,944L4584,932L4588,919L4588,906L4576,891L4563,879L4560,873Z" style="fill:rgb(214,142,89);stroke:black;stroke-width:8.33px;"/>
                    <path d="M4682.65,869L4668,857L4646,846L4619,836.69L4603,833L4588,836" style="fill:none;stroke:black;stroke-width:8.33px;"/>
                </g>
                <path id="Oreille2" serif:id="Oreille" d="M4455,1246L4490,1216L4516,1188L4524,1170L4528,1143L4528,1076L4533,1061L4541,1057L4556,1063L4572,1065L4588,1063L4601,1057L4629,1024L4671,966L4692,938L4697,919L4704,899L4706.86,879.909L4706.86,853L4704,832L4696,811L4684,792L4672,775L4657,759L4637,745L4622,737L4599,737L4586,742L4572,751L4559.34,762.813L4545,777L4538,786L4527,797L4518,811L4512,824" style="fill:none;stroke:black;stroke-width:8.33px;"/>
                <g id="Nez">
                    <path d="M3992,1153L4003,1155L4019,1155L4030,1157L4036,1159L4036,1155L4028,1149L4017,1148L4003,1149L3992,1153Z" style="fill:rgb(214,142,89);stroke:rgb(214,142,89);stroke-width:8.33px;"/>
                    <path d="M3992,1153L4003,1149L4017,1148L4028,1149L4036,1155" style="fill:none;stroke:black;stroke-width:8.33px;"/>
                    <path d="M3915,1132L3937,1139L3965,1143L3978,1143L3965,1155L3970,1162L3982,1178L3970,1172.78L3943,1160L3932.18,1151.5L3923,1143L3918.44,1139L3915,1132Z" style="fill:rgb(214,142,89);stroke:rgb(214,142,89);stroke-width:8.33px;"/>
                </g>
                <g id="Bouche">
                    <path d="M4047,1292L4058.8,1294L4078,1294L4107,1289L4102,1302L4094,1318L4090,1325L4087,1338L4076,1325L4059,1312L4049,1303L4047,1292Z" style="fill:rgb(214,142,89);stroke:rgb(214,142,89);stroke-width:8.33px;"/>
                    <path d="M4007,1243L4019,1240L4046,1236L4071,1231L4105,1225L4143,1228L4116,1233L4084.57,1240.77L4058.8,1255.49L4044,1267L4034,1263L4023,1257L4014,1249.8L4007,1243Z" style="fill:rgb(214,142,89);stroke:rgb(214,142,89);stroke-width:8.33px;"/>
                    <path d="M4044,1267L4062,1253L4086,1240L4116,1230L4143,1228L4166,1231L4140,1231L4116,1233L4086,1242L4063,1255L4049,1274L4044,1267Z" style="stroke:black;stroke-width:8.33px;"/>
                </g>
                <g id="Oeil">
                    <g transform="matrix(1.19391,-0.298949,0.0773064,1.14024,-882.341,1129.62)">
                        <ellipse cx="4203.5" cy="906" rx="6.5" ry="7"/>
                    </g>
                    <path d="M4115,951.41L4108,960L4098,977L4098,987L4112,981L4136,961L4158,938L4174,912L4185,884.5L4189.11,870.483L4170.59,900.45L4159.23,913.914L4131.7,945.296L4124,953L4119.48,955.512L4115,951.41Z" style="fill:rgb(214,142,89);stroke:rgb(214,142,89);stroke-width:8.33px;"/>
                    <path d="M4075,916L4086.5,928.742L4103,944L4119.48,955.512L4124,953L4133,944L4160,913L4169,893L4176,874L4176,865L4162,870L4135,882L4119.48,891.424L4092,907.78L4086.5,911L4075,916Z" style="fill:white;"/>
                    <clipPath id="_clip5">
                        <path d="M4075,916L4086.5,928.742L4103,944L4119.48,955.512L4124,953L4133,944L4160,913L4169,893L4176,874L4176,865L4162,870L4135,882L4119.48,891.424L4092,907.78L4086.5,911L4075,916Z"/>
                    </clipPath>
                    <g clip-path="url(#_clip5)">
                        <g transform="matrix(0.827105,-0.72864,0.516478,0.901657,233.895,3070.5)">
                            <ellipse cx="4093.11" cy="926.477" rx="16.893" ry="26.523" style="fill:rgb(123,77,155);stroke:black;stroke-width:8.7px;"/>
                        </g>
                        <g transform="matrix(0.877022,-0.500202,0.369497,0.924998,168.778,2122.03)">
                            <ellipse cx="4086.16" cy="916.696" rx="11.157" ry="18.804" style="stroke:black;stroke-width:5.97px;"/>
                        </g>
                        <path d="M4098.09,915.063L4114,907" style="fill:none;stroke:white;stroke-width:11.11px;"/>
                    </g>
                    <path d="M4160,913L4149,926L4133,944L4124,953L4115,958" style="fill:none;stroke:black;stroke-width:8.33px;"/>
                    <path d="M4058,930L4063,916L4077,899L4100,886L4123,874L4149,863L4169,853L4187,848L4208,839L4184,879L4169,903L4160,913L4169,893L4176,874L4176,865L4162,870L4135,882L4107,899L4086.5,911L4075,916L4067,922L4058,930Z" style="stroke:black;stroke-width:8.33px;"/>
                    <g transform="matrix(1,0,0,1,-2,0)">
                        <path d="M4055,916L4069,894L4088,878L4113,863L4151,846" style="fill:none;stroke:black;stroke-width:8.33px;"/>
                    </g>
                    <path d="M3995,907L4011,922L4023,926L4036,926L4055,907L4073,881L4102,848L4137,819L4163,799L4194,785L4163,788L4128,805L4093,824L4061,856L4031,881L4011,897L3995,907Z" style="stroke:black;stroke-width:8.33px;"/>
                </g>
            </g>
            <path id="Visage2" serif:id="Visage" d="M4887,1153L4917,1239L4869,1265L4789,1312L4713,1360L4664,1395L4622,1430L4572,1482L4528,1528L4473,1586L4445,1618L4431,1602L4405,1569L4367,1528L4350,1502L4344,1487L4338,1457L4330,1437L4315,1424L4286,1430L4229,1445L4182,1457L4161,1462L4141,1462L4130,1461L4120,1454L4103,1437L4093,1420L4091,1404L4091,1377L4093,1351L4087,1338L4076,1325L4059,1312L4049,1303L4047,1292L4049,1274L4044,1267L4034,1263L4023,1257L4013,1249L4007,1243L4007,1236L4013,1216L4013,1202L4007,1192L3997,1183L3982,1178L3959,1168L3943,1160L3929,1149L3918,1138L3915,1132L3918,1123L3929,1108L3946,1086L3967,1049L3988,1013L3997,992L4007,972L4010,963L4007,955L3997,950L3985,940L3978,930L3973,918L3970,895L3970,771L3997,583L4182,485L4513,771L4545,777L4557,765L4572,751L4586,742L4599,737L4622,737L4637,745L4657,759L4672,775L4684,792L4696,811L4704,832L4707,854L4707,879L4704,899L4776,984L4877,1123L4887,1153Z" style="fill:none;stroke:black;stroke-width:13.89px;"/>
            <path id="Cheveux" d="M4904.09,1202L4897,1149L4897,1044L4910,972L4920,919L4929,896L4943,858L4957,823L4962,793L4971,801L4986,814L4996,820L4984,804L4978,786L4978,755L4981,730L4982,706L4981,692L4975,674L4982,674L4993,687L5001,703L5004,719L5004,735L5002,743L5010,730L5013,707L5013,682L5004,659L4994,638L4984,623L4970,603L4987,612L5004,618L5022,620L5037,622L5058,619L5037,615L5013,601L4990,579L4955,530L4933,489L4913,460L4890,431L4869,412L4844,392L4872,398L4890,407L4910,419L4927,432L4938,446L4948,460L4936,432L4913,403L4881,373L4848,352L4806,331L4777,319L4747,310L4729,310L4698,313L4703,304L4723,294L4754,291L4777,292L4797,297L4774,284L4750,277L4718,277L4690,284L4666,297L4649,310L4639,304L4636,286L4626,265L4605,240L4580,219L4556,205L4534,196L4511,191L4483,191L4459,196L4496,198L4520,205L4539,215L4560,234L4570,249L4576,269L4576,281L4560,267L4531,249L4502,240L4469,234L4422,234L4376,240L4350,246L4306,246L4284,240L4272,229L4266,215L4272,187L4259,198L4250,221L4247,240L4252,260L4252,267L4236,277L4218,277L4195,275L4183,272L4175,267L4164,255L4171,272L4179,281L4192,289L4177,294L4152,300L4127,303L4102,303L4082,297L4064,286L4046,272L4035,255L4031,240L4032,224L4024,243L4016,269L4015,294L4016,322L4022,343L4031,361L4022,367L3995,369L3969,365L3949,357L3931,344L3918,332L3908,321L3901,309L3899,325L3900,355L3902,384L3908,399L3921,424L3930,438L3938,448L3930,453L3918,452L3904,446L3892,437L3881,424L3886,443L3892,452L3897,457L3892,466L3873,472L3853,475L3835,475L3821,470L3807,460L3798,448L3788,427L3785,448L3785,486L3792,511L3801,530L3816,551L3835,576L3846,582L3831,601L3814,612L3798,615L3781,615L3764,610L3754,601L3747,591L3742,578L3740,603L3742,642L3754,667L3772,687L3792,703L3805,709L3828,712L3819,727L3805,755L3795,780L3792,801L3792,832L3799,850L3811,863L3805,847L3801,823L3805,809L3814,793L3831,780L3823,797L3819,812L3821,832L3828,853L3840,873L3853,885L3846,868L3842,845L3845,820L3856,805L3856,829L3860,860L3866,873L3878,892L3896,915L3913,930L3938,947L3921,928L3911,906L3909,877L3909,850L3911,829L3918,852L3931,877L3940,894L3954,908L3966,919L3974.98,922.76L3973,918L3970,895L3970,823L3979,836L3993,852L4013,865L4029,873L4010,853L3999,829L3993,801L4005,812L4025,829L4045,841L4061,850L4046,836L4031,817L4018,797L4008,755L4008,727L4013,712L4029,696L4039,682L4049,667L4049,678L4061,667L4071,659L4080,659L4092,648L4105,645L4105,696L4109,722L4117,748L4117,719L4123,692L4132,663L4140,645L4151,627L4151,650L4156,674L4161,696L4176,722L4171,696L4171,667L4182,638L4190,627L4198,630L4203,642L4216,661L4238,687L4254,703L4255,709L4238,709L4248,717L4257,725L4264,735L4257,743L4310,743L4328,748L4341,755L4357,755L4365,762L4355,765L4369,772L4377,786L4383,804L4401,841L4416,881L4429,913L4443,953L4448,967L4455,933L4460,896L4466,858L4469,832L4483,814L4505,804L4527,797L4538,786L4545,777L4572,751L4586,742L4599,737L4622,737L4637,745L4657,759L4672,775L4684,792L4696,811L4704,832L4706.86,853L4706.86,879.909L4704,899L4697,919L4692,938L4706.86,953L4710,969L4718,991L4732,1010L4747,1022L4740,1024L4730,1022L4743,1044L4761,1061L4766,1068L4751,1062L4766,1079L4778,1098L4799,1120L4855,1140L4881,1163L4890,1181L4904.09,1202Z" style="fill:rgb(102,54,54);"/>
            <clipPath id="_clip6">
                <path id="Cheveux1" serif:id="Cheveux" d="M4904.09,1202L4897,1149L4897,1044L4910,972L4920,919L4929,896L4943,858L4957,823L4962,793L4971,801L4986,814L4996,820L4984,804L4978,786L4978,755L4981,730L4982,706L4981,692L4975,674L4982,674L4993,687L5001,703L5004,719L5004,735L5002,743L5010,730L5013,707L5013,682L5004,659L4994,638L4984,623L4970,603L4987,612L5004,618L5022,620L5037,622L5058,619L5037,615L5013,601L4990,579L4955,530L4933,489L4913,460L4890,431L4869,412L4844,392L4872,398L4890,407L4910,419L4927,432L4938,446L4948,460L4936,432L4913,403L4881,373L4848,352L4806,331L4777,319L4747,310L4729,310L4698,313L4703,304L4723,294L4754,291L4777,292L4797,297L4774,284L4750,277L4718,277L4690,284L4666,297L4649,310L4639,304L4636,286L4626,265L4605,240L4580,219L4556,205L4534,196L4511,191L4483,191L4459,196L4496,198L4520,205L4539,215L4560,234L4570,249L4576,269L4576,281L4560,267L4531,249L4502,240L4469,234L4422,234L4376,240L4350,246L4306,246L4284,240L4272,229L4266,215L4272,187L4259,198L4250,221L4247,240L4252,260L4252,267L4236,277L4218,277L4195,275L4183,272L4175,267L4164,255L4171,272L4179,281L4192,289L4177,294L4152,300L4127,303L4102,303L4082,297L4064,286L4046,272L4035,255L4031,240L4032,224L4024,243L4016,269L4015,294L4016,322L4022,343L4031,361L4022,367L3995,369L3969,365L3949,357L3931,344L3918,332L3908,321L3901,309L3899,325L3900,355L3902,384L3908,399L3921,424L3930,438L3938,448L3930,453L3918,452L3904,446L3892,437L3881,424L3886,443L3892,452L3897,457L3892,466L3873,472L3853,475L3835,475L3821,470L3807,460L3798,448L3788,427L3785,448L3785,486L3792,511L3801,530L3816,551L3835,576L3846,582L3831,601L3814,612L3798,615L3781,615L3764,610L3754,601L3747,591L3742,578L3740,603L3742,642L3754,667L3772,687L3792,703L3805,709L3828,712L3819,727L3805,755L3795,780L3792,801L3792,832L3799,850L3811,863L3805,847L3801,823L3805,809L3814,793L3831,780L3823,797L3819,812L3821,832L3828,853L3840,873L3853,885L3846,868L3842,845L3845,820L3856,805L3856,829L3860,860L3866,873L3878,892L3896,915L3913,930L3938,947L3921,928L3911,906L3909,877L3909,850L3911,829L3918,852L3931,877L3940,894L3954,908L3966,919L3974.98,922.76L3973,918L3970,895L3970,823L3979,836L3993,852L4013,865L4029,873L4010,853L3999,829L3993,801L4005,812L4025,829L4045,841L4061,850L4046,836L4031,817L4018,797L4008,755L4008,727L4013,712L4029,696L4039,682L4049,667L4049,678L4061,667L4071,659L4080,659L4092,648L4105,645L4105,696L4109,722L4117,748L4117,719L4123,692L4132,663L4140,645L4151,627L4151,650L4156,674L4161,696L4176,722L4171,696L4171,667L4182,638L4190,627L4198,630L4203,642L4216,661L4238,687L4254,703L4255,709L4238,709L4248,717L4257,725L4264,735L4257,743L4310,743L4328,748L4341,755L4357,755L4365,762L4355,765L4369,772L4377,786L4383,804L4401,841L4416,881L4429,913L4443,953L4448,967L4455,933L4460,896L4466,858L4469,832L4483,814L4505,804L4527,797L4538,786L4545,777L4572,751L4586,742L4599,737L4622,737L4637,745L4657,759L4672,775L4684,792L4696,811L4704,832L4706.86,853L4706.86,879.909L4704,899L4697,919L4692,938L4706.86,953L4710,969L4718,991L4732,1010L4747,1022L4740,1024L4730,1022L4743,1044L4761,1061L4766,1068L4751,1062L4766,1079L4778,1098L4799,1120L4855,1140L4881,1163L4890,1181L4904.09,1202Z"/>
            </clipPath>
            <g clip-path="url(#_clip6)">
                <path d="M4061,316L4088,357L4107,383L4161,424L4191,440L4149,446L4094,433L4040,406L3989,343L4003,249L4061,224L4050.26,281.716L4051,294L4061,316Z" style="fill:rgb(65,38,38);stroke:rgb(65,38,38);stroke-width:8.33px;"/>
                <path d="M4018,797L4003,752L3989,715L3982,679L3982,606.5L3966,653L3959,690L3955,715L3941,679L3937,663L3924,653L3907,701L3907,758L3924,785L3929,802L3989,869L4041,901L4113,847L4074,791L4018,797Z" style="fill:rgb(65,38,38);stroke:rgb(65,38,38);stroke-width:8.33px;"/>
                <path d="M3733,595.779L3726,635.542L3758,667L3819,677L3868,671L3877,653L3894,616L3888,586L3868,627.779L3847,640L3812.98,644.831L3779.67,640L3754,622.81L3740,586L3733,595.779Z" style="fill:rgb(65,38,38);stroke:rgb(65,38,38);stroke-width:8.33px;"/>
                <path d="M4742,446L4769,467L4795,499L4821,536L4841,573L4861,606.5L4821,582L4799,550L4785,513L4769,482L4742,446Z" style="fill:rgb(65,38,38);stroke:rgb(65,38,38);stroke-width:8.33px;"/>
                <path d="M4837,677.026L4818,653L4792,617L4766,592L4714,550L4664,513L4695,560L4714,598L4740,622L4770.5,653L4788,671L4824,721L4837,743L4850,721L4837,677.026Z" style="fill:rgb(65,38,38);stroke:rgb(65,38,38);stroke-width:8.33px;"/>
                <path d="M3880,711L3881,736L3885,757L3899,786L3916,799L3970,823L4008.22,988.898L3801,950L3785,791L3801,745L3827,711L3841,711L3863,701L3880,688L3880,711Z" style="fill:rgb(65,38,38);stroke:rgb(65,38,38);stroke-width:8.33px;"/>
                <path d="M4118.18,575.558L4132.89,531L4154,487L4174,459L4205,427L4224,412L4283,386L4257,408L4242,433L4233,467L4233,502L4247,473L4270,441L4297,418L4336,397.32L4310,422L4302,441L4302,496L4310,536L4310,496L4318,467L4325,448L4346,418L4336,441L4336,467L4357,448L4381,418L4399,408L4390,441L4387,459L4387,476L4390,496L4414,473L4439,459L4454,454L4454,487L4461,518L4471.32,545L4475.57,559.274L4454,551L4409,536L4404,551L4404,567L4390,545L4387,513L4381,536L4381,551L4361,531L4336,522L4325,522L4325,542L4331,575.558L4305,559.274L4283,527L4275,507L4275,479L4251,502L4224,527L4194,551L4174,579L4180,536L4190,502L4194,482L4168,518L4146.94,551L4129,579L4116,609.5L4118.18,575.558Z" style="fill:rgb(138,75,75);stroke:rgb(138,75,75);stroke-width:8.33px;"/>
                <path d="M4582,324L4563,305L4539,284L4502,270L4475.57,265L4448,265L4475.57,275L4509,295L4482,288L4448,284L4418,288L4448,295L4467,318L4448,313L4418,313L4369,324L4429,332L4472,346L4514,373L4514,355L4509,342L4532.53,355L4555,377L4547,353L4582,367.5L4608,373L4599,346L4582,324Z" style="fill:rgb(138,75,75);stroke:rgb(138,75,75);stroke-width:8.33px;"/>
                <path d="M4573,415L4579,445L4595.5,485L4623,518L4660,550L4688,574L4707,595.779L4733,627.542L4712,588L4693,557L4676,533L4660,505.389L4684,518L4716,539L4739,557L4764,574L4759,553L4748,528L4737,505.389L4728,489L4751,503L4769,525L4786,550L4799,574L4799,547L4786,513L4769,482L4739,445L4769,452L4810,476L4834,493L4855,513L4891,553L4884,525L4873,493L4852,459L4824,435L4785,417L4754.14,405.096L4733,405.096L4713.41,410.48L4716,422L4684,398L4656.84,382.806L4627,377L4642.46,394.56L4672,410.48L4702,438L4728,466L4716,470L4702,470L4679,452L4656.84,430L4638,415L4616.95,401.309L4587,405.096L4573,415Z" style="fill:rgb(138,75,75);stroke:rgb(138,75,75);stroke-width:8.33px;"/>
                <path d="M4556,422L4559,464L4567,505L4571,533L4579,556L4593.06,595.779L4567,574L4545,549L4526,529L4516,513L4508,529L4512,556L4529.57,592.3L4504,568L4488,529L4475.57,505L4472,483L4475.57,456L4491,422L4508,415L4501,446L4506,475L4508,462.118L4518,448L4516,472L4536,494L4540,472L4545,446L4556,422Z" style="fill:rgb(138,75,75);stroke:rgb(138,75,75);stroke-width:8.33px;"/>
                <path d="M4188,626L4198,603L4212,576L4220,609L4239,638L4262,666L4299,686L4279,661L4262,627L4253,603L4249,576L4249,545L4267,576L4295,606L4325,630L4362,650L4386,661L4417,671L4391,646L4362,616L4345,590L4330.5,567L4325,531L4351,567L4369,592L4384,609L4399,622L4391,606L4389,592L4412,616L4447,630L4490,644L4517,650L4548,658L4527,638L4502,609L4482,576L4472,550L4467,513L4487,550L4506,586L4523.09,609L4544,630L4533,606L4527,582L4523.09,547L4539,578L4560,613L4577,638L4603,663L4626,680L4653,695L4631,673L4613,644L4597,613L4589,578L4592,545L4606,571L4642,609L4687,646L4721,666L4745,680L4767,698L4788,717L4783,695L4775,673L4753,635L4788,671L4806,695L4824,721L4837,743L4837,673L4832,644L4828,627L4850,663L4863,695L4872,724L4882,756L4892,731L4900,701L4900,671L4895,627L4889,598L4882,571L4897,606L4903,635L4910,673L4914,710L4923,743L4934,763L4932,739L4928,715L4923,691L4940,710L4950,734L4958,759L4965,783L4974,793L5001,812L4993,1042L4940,1286L4677,1224L4362,997L4198,710L4188,626Z" style="stroke:black;stroke-width:8.33px;"/>
                <path d="M4008.24,756L4003,721L4008.24,665L4016,621L4028,590L4043,571L4075,568L4100,571L4115,581L4109,604L4106,627.542L4108,644L4083,708L4008.24,756Z" style="stroke:black;stroke-width:8.33px;"/>
                <path d="M4115,581L4120,568L4128,543L4134,525L4109,534L4073,534L4045,530L4020,520L3994,506L3978,492L3956,471L3938.5,445L3895,434L3908.67,458L3927,480L3945,498L3952,506L3945,514L3931,525L3899,525L3931,534L3962,534L3983,538L4016,538L4035,534L4020,553L3998,568L3971,578L3994,581L4020,568L4035,558L4049,549L4073,549L4097,558L4109,565L4115,581Z" style="stroke:black;stroke-width:8.33px;"/>
                <g transform="matrix(1,0,0,1,0,-2)">
                    <path d="M4192.78,298.17L4203,301L4218,304L4201,310L4181,316L4149,321L4115,321L4095,316L4085,314L4100,331L4137,353L4165,361L4201,366L4146,366L4123,361L4095,350.5L4076,336L4061,316L4051,294L4049,261L4192.78,298.17Z" style="stroke:black;stroke-width:8.33px;"/>
                </g>
                <g transform="matrix(1,0,0,1,0,-9)">
                    <path d="M3948,366L3978,392L3995,401L4016.5,410L4016.5,419L4003,423L3978,419L3998,430L4016.5,434L4085,434L4115,446L4121,455L4103,463L4085,474L4059,481L4095,474L4127,474L4154,463L4180,455L4194,439L4134,439L4111,434L4085,423L4068,410L4049,392L4037,366L3990,356L3948,366Z" style="stroke:black;stroke-width:8.33px;"/>
                </g>
                <g transform="matrix(1,0,0,1,-2,-12)">
                    <path d="M4257.18,265.735L4267,278L4281,290L4306,298L4281,304L4263.18,304L4246,301L4231,295L4213.28,288.981L4231,265.735L4257.18,265.735Z" style="stroke:black;stroke-width:8.33px;"/>
                </g>
                <path d="M3970,860L3939,829L3929,802L3929,744L3934,711L3939,744L3956,778L3970,823L3970,860Z" style="stroke:black;stroke-width:8.33px;"/>
                <path d="M4521,388L4485,360L4451,342L4415,330L4384,326L4349,326L4309,330L4354,337L4390,346L4418,357L4444,372L4464,378L4493,386L4521,388Z" style="stroke:black;stroke-width:8.33px;"/>
                <path d="M3907,701L3908,673L3916,646L3929,625L3953,601L3943,629L3937,670L3934.37,713.452L3929,692L3929,660L3920,678L3907,701Z" style="stroke:black;stroke-width:8.33px;"/>
                <path d="M4730,307L4709,312L4691,322L4677,335L4704,335L4730,345L4763,364L4784,378L4807,394L4786,372L4756,351L4733,339L4717,335L4730,330L4749,330L4771,335L4800,345L4855,367.5L4873.35,376.679L4804,325L4730,307Z" style="stroke:black;stroke-width:8.33px;"/>
                <path d="M3814,473L3837,516L3858,539L3887,560L3915,572L3929,576L3915,591L3904,618L3887,656L3881,688L3865,701L3843,710L3828,712L3767,718L3724,656L3724,628L3747,640L3770,656L3793,665L3820,665L3846,660L3865,653L3877,637L3887,618L3890,600L3881,605L3858,610L3834,618L3814,618L3798,615L3767,531L3767,437L3798,403L3814,473Z" style="stroke:black;stroke-width:8.33px;"/>
                <path d="M4399,470L4421,447L4450,425L4476,415L4502,412L4531,412L4518,425L4507,437L4507,425L4497,421L4486,437L4476,457L4473,483L4476,507L4465,486L4462,457L4470,425L4445,437L4421,453L4399,470Z" style="stroke:black;stroke-width:8.33px;"/>
                <g transform="matrix(1,0,0,1,1,-11)">
                    <path d="M3904,453.75L3909,479L3918,491L3904,491L3873,494L3849,494L3826.5,481.929L3796.1,442.308L3904,453.75Z" style="stroke:black;stroke-width:8.33px;"/>
                </g>
                <path d="M3909,850L3907,824L3907,799L3916,813L3916,833L3925,865.457L3909,850Z" style="stroke:black;stroke-width:8.33px;"/>
                <path d="M3845,820L3846,798L3849,772L3858,753L3874,741L3864,760L3858,789L3856,805L3845,820Z" style="stroke:black;stroke-width:8.33px;"/>
                <path d="M4554.77,235.934L4577,252L4599,281L4608,309L4613,335L4599,319L4579,298L4558,278L4530,263L4478.88,247.524L4533,247.524L4554.77,235.934Z" style="stroke:black;stroke-width:8.33px;"/>
                <path d="M4556,371L4547,353L4532,340L4515,328L4489,317L4523,324L4556,340L4583,353L4595.5,371L4595.5,353L4583,328L4602,344L4613,353L4632,349L4638,335L4638,317L4632,289L4622,265L4652,302L4657,324L4652,335L4646,344L4670,344L4696,349L4711,358L4696,356L4678,358L4699,367L4743,390L4785,417L4819,457L4790,433L4756,406L4723,390L4699,381L4699,390L4718,417L4691,397L4670,385L4646,381L4627,377L4622,385L4646,394L4627,397L4613,403L4632,426L4646,450L4652,470L4627,450L4602,433L4583,417L4556,417L4560,394L4551,390L4551,381L4556,371Z" style="stroke:black;stroke-width:8.33px;"/>
                <path d="M4996.01,615.18L4982,604L4967,589L4954,568L4944,548L4949,578L4962,604L4982,632L5001,651L5007,678L5007,696L4996.01,714L4991,768.5L5042,756L5062,678L4996.01,615.18Z" style="stroke:black;stroke-width:8.33px;"/>
                <path d="M4132.89,661L4138,627L4147,597L4161,568L4155,603L4155,666L4158.97,687.084L4132.89,661Z" style="stroke:black;stroke-width:8.33px;"/>
                <path d="M4132.89,525L4138,511L4151,488L4167,468L4180,454L4194,438L4215,418L4244,399" style="fill:none;stroke:black;stroke-width:8.33px;"/>
                <path d="M3929,576L3947,580L3971,578" style="fill:none;stroke:black;stroke-width:8.33px;"/>
                <g transform="matrix(1,0,0,1,15,-8)">
                    <path d="M3884,333L3900.51,363.109L3924,389L3950,411L3963,418.5" style="fill:none;stroke:black;stroke-width:8.33px;"/>
                </g>
                <path d="M3984,603L3973,629L3963,654L3954,697" style="fill:none;stroke:black;stroke-width:8.33px;"/>
                <path d="M3881,688L3880,708L3881,736L3885,757L3899,786" style="fill:none;stroke:black;stroke-width:8.33px;"/>
                <path d="M3899,525L3877,521L3852,510L3838,501L3821.83,487.638" style="fill:none;stroke:black;stroke-width:8.33px;"/>
                <path d="M4347,367L4321,372L4303,378L4283,386" style="fill:none;stroke:black;stroke-width:8.33px;"/>
                <path d="M4325,448L4341,423L4360,405L4384,391L4403,386L4435,386L4403,378L4373,378L4354,382" style="fill:none;stroke:black;stroke-width:8.33px;"/>
                <path d="M4987,677L4968,649L4949,624L4936,600L4925,568L4917,545" style="fill:none;stroke:black;stroke-width:8.33px;"/>
            </g>
            <path id="Cheveux2" serif:id="Cheveux" d="M4904.09,1202L4897,1149L4897,1044L4910,972L4920,919L4929,896L4943,858L4957,823L4962,793L4971,801L4986,814L4996,820L4984,804L4978,786L4978,755L4981,730L4982,706L4981,692L4975,674L4982,674L4993,687L5001,703L5004,719L5004,735L5002,743L5010,730L5013,707L5013,682L5004,659L4994,638L4984,623L4970,603L4987,612L5004,618L5022,620L5037,622L5058,619L5037,615L5013,601L4990,579L4955,530L4933,489L4913,460L4890,431L4869,412L4844,392L4872,398L4890,407L4910,419L4927,432L4938,446L4948,460L4936,432L4913,403L4881,373L4848,352L4806,331L4777,319L4747,310L4729,310L4698,313L4703,304L4723,294L4754,291L4777,292L4797,297L4774,284L4750,277L4718,277L4690,284L4666,297L4649,310L4639,304L4636,286L4626,265L4605,240L4580,219L4556,205L4534,196L4511,191L4483,191L4459,196L4496,198L4520,205L4539,215L4560,234L4570,249L4576,269L4576,281L4560,267L4531,249L4502,240L4469,234L4422,234L4376,240L4350,246L4306,246L4284,240L4272,229L4266,215L4272,187L4259,198L4250,221L4247,240L4252,260L4252,267L4236,277L4218,277L4195,275L4183,272L4175,267L4164,255L4171,272L4179,281L4192,289L4177,294L4152,300L4127,303L4102,303L4082,297L4064,286L4046,272L4035,255L4031,240L4032,224L4024,243L4016,269L4015,294L4016,322L4022,343L4031,361L4022,367L3995,369L3969,365L3949,357L3931,344L3918,332L3908,321L3901,309L3899,325L3900,355L3902,384L3908,399L3921,424L3930,438L3938,448L3930,453L3918,452L3904,446L3892,437L3881,424L3886,443L3892,452L3897,457L3892,466L3873,472L3853,475L3835,475L3821,470L3807,460L3798,448L3788,427L3785,448L3785,486L3792,511L3801,530L3816,551L3835,576L3846,582L3831,601L3814,612L3798,615L3781,615L3764,610L3754,601L3747,591L3742,578L3740,603L3742,642L3754,667L3772,687L3792,703L3805,709L3828,712L3819,727L3805,755L3795,780L3792,801L3792,832L3799,850L3811,863L3805,847L3801,823L3805,809L3814,793L3831,780L3823,797L3819,812L3821,832L3828,853L3840,873L3853,885L3846,868L3842,845L3845,820L3856,805L3856,829L3860,860L3866,873L3878,892L3896,915L3913,930L3938,947L3921,928L3911,906L3909,877L3909,850L3911,829L3918,852L3931,877L3940,894L3954,908L3966,919L3974.98,922.76L3973,918L3970,895L3970,823L3979,836L3993,852L4013,865L4029,873L4010,853L3999,829L3993,801L4005,812L4025,829L4045,841L4061,850L4046,836L4031,817L4018,797L4008,755L4008,727L4013,712L4029,696L4039,682L4049,667L4049,678L4061,667L4071,659L4080,659L4092,648L4105,645L4105,696L4109,722L4117,748L4117,719L4123,692L4132,663L4140,645L4151,627L4151,650L4156,674L4161,696L4176,722L4171,696L4171,667L4182,638L4190,627L4198,630L4203,642L4216,661L4238,687L4254,703L4255,709L4238,709L4248,717L4257,725L4264,735L4257,743L4310,743L4328,748L4341,755L4357,755L4365,762L4355,765L4369,772L4377,786L4383,804L4401,841L4416,881L4429,913L4443,953L4448,967L4455,933L4460,896L4466,858L4469,832L4483,814L4505,804L4527,797L4538,786L4545,777L4572,751L4586,742L4599,737L4622,737L4637,745L4657,759L4672,775L4684,792L4696,811L4704,832L4706.86,853L4706.86,879.909L4704,899L4697,919L4692,938L4706.86,953L4710,969L4718,991L4732,1010L4747,1022L4740,1024L4730,1022L4743,1044L4761,1061L4766,1068L4751,1062L4766,1079L4778,1098L4799,1120L4855,1140L4881,1163L4890,1181L4904.09,1202Z" style="fill:none;stroke:black;stroke-width:13.89px;"/>
        </g>
    </g>
</svg>
