<?xml version="1.0" encoding="UTF-8" standalone="no"?>
<!DOCTYPE svg PUBLIC "-//W3C//DTD SVG 1.1//EN" "http://www.w3.org/Graphics/SVG/1.1/DTD/svg11.dtd">
<svg width="100%" height="100%" viewBox="0 0 1902 1978" version="1.1" xmlns="http://www.w3.org/2000/svg" xmlns:xlink="http://www.w3.org/1999/xlink" xml:space="preserve" xmlns:serif="http://www.serif.com/" style="fill-rule:evenodd;clip-rule:evenodd;stroke-linecap:round;stroke-linejoin:round;stroke-miterlimit:1.5;">
    <g transform="matrix(1,0,0,1,-4924.17,-1786.17)">
        <g id="Face---Front" serif:id="Face - Front" transform="matrix(1,0,0,1,-468.5,-567.5)">
            <path id="Blouson-gauche" serif:id="Blouson gauche" d="M5595,3637L5568,3643L5515,3660L5456,3679L5401,3697L5408,3745L5503,3891.68L5538,3913L5503,3891.68L5401,3829L5568,3987.5L5642,4093L5711,4170L5694,4093L5667,4000L5757,4112L5800,4178.16L5848.5,4229L5828,4188L5800,4125L5982,4229L6075,4229L5982,4170L6104,4217L6177,4229L6180.22,4196L6183,4145L6183,4099L6180.22,4075.82L6153,4056L6122,4034L6107,4019L6093,4000L6082,3993L6067,4000L6057,3971L6039,3939L6017.85,3891.68L6000,3849L5979,3829L5945.51,3810.11L5898.82,3786.97L5857,3766.29L5757,3714L5701,3681L5642,3651L5610.98,3641.36L5595,3637Z" style="fill:rgb(65,83,73);"/>
            <clipPath id="_clip1">
                <path id="Blouson-gauche1" serif:id="Blouson gauche" d="M5595,3637L5568,3643L5515,3660L5456,3679L5401,3697L5408,3745L5503,3891.68L5538,3913L5503,3891.68L5401,3829L5568,3987.5L5642,4093L5711,4170L5694,4093L5667,4000L5757,4112L5800,4178.16L5848.5,4229L5828,4188L5800,4125L5982,4229L6075,4229L5982,4170L6104,4217L6177,4229L6180.22,4196L6183,4145L6183,4099L6180.22,4075.82L6153,4056L6122,4034L6107,4019L6093,4000L6082,3993L6067,4000L6057,3971L6039,3939L6017.85,3891.68L6000,3849L5979,3829L5945.51,3810.11L5898.82,3786.97L5857,3766.29L5757,3714L5701,3681L5642,3651L5610.98,3641.36L5595,3637Z"/>
            </clipPath>
            <g clip-path="url(#_clip1)">
                <path d="M6104,4014.93L6104,4039L6107.84,4079.29L6110.78,4107.14L6115,4135.15L6123.21,4190.61L6130.08,4221.29L6177,4229L6180.22,4196L6183,4145L6183,4099L6180,4074L6153,4056L6122,4034L6104,4014.93Z" style="fill:rgb(32,48,43);stroke:rgb(32,48,43);stroke-width:8.33px;"/>
                <path d="M5544,3739L5562,3764L5586,3821L5630,3919L5656,3993L5664,4031L5680.35,4046L5698,4064L5704,4031L5704,3990L5708,3945L5695,3919L5680.35,3910L5664,3910L5635,3862L5608.5,3821L5586,3772.91L5570,3746L5544,3739Z" style="fill:rgb(32,48,43);stroke:rgb(32,48,43);stroke-width:8.33px;"/>
                <path d="M5420,3707L5463,3699L5529,3699L5526.32,3715L5548,3726L5591,3745L5600,3745L5618,3731L5638,3715L5632,3745L5632,3774L5655,3825L5680,3868L5700,3891L5700,3796.5L5710,3791L5719,3809L5734,3868L5743,3922L5751,3945L5774,3945L5816,3936.5L5812,3922L5785,3896L5754,3860L5739,3829L5727,3782L5716,3751L5692,3711L5686.86,3699L5686.86,3673.81L5642,3651L5595,3637L5568,3643L5463,3676.75L5401,3697L5420,3707Z" style="fill:rgb(32,48,43);stroke:rgb(32,48,43);stroke-width:8.33px;"/>
                <path d="M5505,3926L5508,3963L5505,4000L5512,4021L5522,3993L5535,4004L5551,4049L5555,4011L5544,3972L5526.32,3963L5517,3936.5L5505,3926Z" style="fill:rgb(32,48,43);stroke:rgb(32,48,43);stroke-width:8.33px;"/>
                <path d="M5778,4170L5774,4128L5769,4075L5762,4034L5762,4014.93L5774,4004L5808,4004L5838,4023.48L5869,4064L5904,4121.96L5929,4178L5974,4241L6057,4252L6050,4229L6009,4202L5974,4178L5950,4141L5932,4121.96L5916,4075L5897,4023.48L5881,3988L5876.93,3971L5887,3963L5904,3988L5932,4034L5954,4075L5983,4114L6018,4156L6050,4184L6050,4160.38L6042,4090L6018,4085L5983,4075L5965,4059L6000,4059L6034,4064L6034,4034L6042,4023.48L6050,4046L6057,4085L6067,4164L6065.06,4202L6119,4247L5965,4319L5744,4252L5778,4170Z" style="fill:rgb(32,48,43);stroke:rgb(32,48,43);stroke-width:8.33px;"/>
                <path d="M5931.5,3971L5965,3988L5996,4000L6015,4014.93L6015,4023.48L5996,4014.93L5960,3993L5931.5,3971Z" style="fill:rgb(32,48,43);stroke:rgb(32,48,43);stroke-width:8.33px;"/>
                <path d="M6067,4000L6075,4034L6081,4082L6088,4147L6094,4184L6094,4213.15L6104,4217L6130.08,4221.29L6124,4196L6118,4155L6110,4102L6104,4039L6104,4014.93L6093,4000L6082,3993L6067,4000Z" style="fill:rgb(215,218,202);stroke:black;stroke-width:8.33px;"/>
                <path d="M6067,4000L6030,3993L5989,3980L5904,3931L5851,3898L5823,3878L5804,3873L5781,3838L5748,3779L5722,3725L5711,3699L5686.86,3673.81L5738.38,3703.03L5757,3714L5835.89,3755.25L5898.82,3786.97L5942.92,3808.65L5979,3829L6000,3849L6012.13,3878L6030,3919.31L6039,3939L6057,3971L6067,4000Z" style="fill:rgb(23,30,28);stroke:black;stroke-width:8.33px;"/>
                <path d="M5414.64,3755.25L5456,3739L5514,3719L5551,3707L5586,3700L5638,3686" style="fill:none;stroke:black;stroke-width:8.33px;"/>
                <path d="M5709.98,3700L5681,3682L5641,3662.5L5616,3653L5586,3658L5480,3686L5401,3707L5397,3673.81L5632,3606L5744,3648L5709.98,3700Z" style="stroke:black;stroke-width:8.33px;"/>
                <path d="M5722,3725L5753,3749L5806,3791L5838,3820L5870,3836.91L5919,3861L5951,3883L5973.25,3901.5L5986,3926L6000,3952L6009.33,3986.45L6030,3993L6067,4000L6057,3971L6039,3939L6017.85,3891.68L6000,3849L5979,3829L5942.92,3808.65L5862.09,3768.45L5764.6,3717.98L5692.19,3676.52L5708,3695.87L5722,3725Z" style="stroke:black;stroke-width:8.33px;"/>
                <path d="M5638,3684L5655,3680L5669.76,3676.52L5684.22,3684L5679,3720.63L5669.76,3770L5659,3802L5647,3791L5638,3767L5644,3736L5664,3690L5644,3690L5638,3684Z" style="stroke:black;stroke-width:8.33px;"/>
            </g>
            <path id="Blouson-gauche2" serif:id="Blouson gauche" d="M5595,3637L5568,3643L5515,3660L5456,3679L5401,3697L5408,3745L5503,3891.68L5538,3913L5503,3891.68L5401,3829L5568,3987.5L5642,4093L5711,4170L5694,4093L5667,4000L5757,4112L5800,4178.16L5848.5,4229L5828,4188L5800,4125L5982,4229L6075,4229L5982,4170L6104,4217L6177,4229L6180.22,4196L6183,4145L6183,4099L6180.22,4075.82L6153,4056L6122,4034L6107,4019L6093,4000L6082,3993L6067,4000L6057,3971L6039,3939L6017.85,3891.68L6000,3849L5979,3829L5945.51,3810.11L5898.82,3786.97L5857,3766.29L5757,3714L5701,3681L5642,3651L5610.98,3641.36L5595,3637Z" style="fill:none;stroke:black;stroke-width:16.67px;"/>
            <path id="Blouson-droite" serif:id="Blouson droite" d="M7107.79,3786.97L7155,3810.11L7230,3840L7286,3866L7247.05,3916.5L7178,4025L7230,3984L7286,3936.5L7217,4044L7107.79,4133L7065,4168L7209,4112L7107.79,4181L6973,4229L6857,4244L6741,4260L6832,4229L6659,4229L6674,4131L6678,4094L6687,4080L6719,4056L6763,4027L6774,4023L6774,3965L6769,3936L6774,3930L6806,3923L6894,3891L6988,3849L7065,3816.25L7078.63,3810.11L7100,3799L7107.79,3786.97Z" style="fill:rgb(65,83,73);"/>
            <clipPath id="_clip2">
                <path id="Blouson-droite1" serif:id="Blouson droite" d="M7107.79,3786.97L7155,3810.11L7230,3840L7286,3866L7247.05,3916.5L7178,4025L7230,3984L7286,3936.5L7217,4044L7107.79,4133L7065,4168L7209,4112L7107.79,4181L6973,4229L6857,4244L6741,4260L6832,4229L6659,4229L6674,4131L6678,4094L6687,4080L6719,4056L6763,4027L6774,4023L6774,3965L6769,3936L6774,3930L6806,3923L6894,3891L6988,3849L7065,3816.25L7078.63,3810.11L7100,3799L7107.79,3786.97Z"/>
            </clipPath>
            <g clip-path="url(#_clip2)">
                <path d="M7203,3876L7192,3919L7177,3967L7162,4027L7162,4091L7314,4005L7296,3913L7257.39,3926L7203,3876Z" style="fill:rgb(32,48,43);stroke:rgb(32,48,43);stroke-width:8.33px;"/>
                <path d="M7014.17,3885.38L7034,3913L7057,3945L7072,3971L7092,4010L7108,4032L7095.76,4046L7078,4079L7057,4112L7045.52,4087L7045.52,4029L7051,3976L7028,3979L6969,4007L6969,3979L6983,3939L6987.24,3906.03L7014.17,3885.38Z" style="fill:rgb(32,48,43);stroke:rgb(32,48,43);stroke-width:8.33px;"/>
                <path d="M7045.52,3847.57L7070,3862L7105,3883L7146,3911L7137,3883L7111,3851L7085,3830L7065.71,3823.2L7045.52,3847.57Z" style="fill:rgb(32,48,43);stroke:rgb(32,48,43);stroke-width:8.33px;"/>
                <path d="M6764,4026.64L6719,4056L6686.68,4080.5L6678,4094L6674,4131L6667,4172L6659,4229L6748,4229L6760,4202L6770,4164L6770,4137L6764,4107.14L6760,4077L6760,4040L6764,4026.64Z" style="fill:rgb(32,48,43);stroke:rgb(32,48,43);stroke-width:8.33px;"/>
                <path d="M6833,4088L6839,4112L6849,4130L6849,4168L6860,4121.96L6891,4057L6922,3993L6891,4014.93L6860,4059L6833,4088" style="fill:rgb(32,48,43);stroke:rgb(32,48,43);stroke-width:8.33px;"/>
                <path d="M6774,4023L6781,4049L6788,4087L6794,4115L6801,4137L6794,4186L6781,4229L6748,4229L6760,4202L6770,4164L6770,4137L6764,4107.14L6760,4077L6760,4040L6764,4026.64L6774,4023Z" style="fill:rgb(215,218,202);stroke:black;stroke-width:8.33px;"/>
                <path d="M6781,4049L6812,4026.64L6853,3997.24L6920,3955L7012,3888L7075,3812L6988,3849L6748,3908L6748,3979L6772.67,4023.48L6781,4049Z" style="fill:rgb(23,30,28);stroke:black;stroke-width:8.33px;"/>
                <path d="M6812,4080.5L6833,4049L6871,4019L6906,3983.5L6926,3958L6930,3971L6930,3983.5L6944,3966L6953.64,3930.5L6920,3955L6891,3983.5L6852,4023L6825,4042L6812,4071L6812,4080.5Z" style="stroke:black;stroke-width:8.33px;"/>
                <path d="M6976.79,3851.76L6994,3864L7012,3888L7021.95,3876L7006,3861L6976.79,3851.76Z" style="stroke:black;stroke-width:8.33px;"/>
                <path d="M6812,3920.82L6833,3936.5L6846,3953L6857,3963L6877.5,3959L6908,3939L6926,3930.5L6934,3920.82L6934,3907L6946,3896L6958,3876L6969,3853.67L6812,3867.1L6812,3920.82Z" style="stroke:black;stroke-width:8.33px;"/>
                <path d="M7100,3799L7131,3818L7177,3838.26L7233,3867.1L7314,3896L7331,3799L7183,3768L7087,3748L7100,3799Z" style="stroke:black;stroke-width:8.33px;"/>
            </g>
            <path id="Blouson-droite2" serif:id="Blouson droite" d="M7107.79,3786.97L7155,3810.11L7230,3840L7286,3866L7247.05,3916.5L7178,4025L7230,3984L7286,3936.5L7217,4044L7107.79,4133L7065,4168L7209,4112L7107.79,4181L6973,4229L6857,4244L6741,4260L6832,4229L6659,4229L6674,4131L6678,4094L6687,4080L6719,4056L6763,4027L6774,4023L6774,3965L6769,3936L6774,3930L6806,3923L6894,3891L6988,3849L7065,3816.25L7078.63,3810.11L7100,3799L7107.79,3786.97Z" style="fill:none;stroke:black;stroke-width:16.67px;"/>
            <path id="Hoodie" d="M6091,3270L6057,3272L6014,3272L5962,3270L5928,3272L5885,3282L5866,3295L5843,3312L5822,3320L5805,3336L5789,3360L5775,3393L5762,3433L5750,3441L5727,3467L5715,3474L5688,3487L5668,3507L5647,3540L5617,3581L5595,3604L5586,3613L5586,3625L5595,3637L5617,3643L5642,3651L5701,3681L5757,3714L5866,3771L5940,3807L5979,3829L6000,3849L6023,3904L6039,3939L6057,3971L6067,4000L6082,3993L6093,4000L6107,4019L6122,4034L6153,4056L6180,4074L6183,4099L6183,4145L6180,4200L6177,4229L6245,4131L6245,4200L6218.83,4323L6303.24,4200L6321,4287L6502.66,4216.26L6390,4287L6659,4229L6667,4172L6674,4131L6678,4094L6687,4080L6719,4056L6763,4027L6774,4023L6774,3965L6769,3936L6774,3930L6806,3923L6894,3891L6988,3849L7075,3812L7100,3799L7111,3782L7111,3762L7100,3738L7075,3707L7049,3662.5L7034,3637L7022,3591L7007,3540L6996,3523L6966,3500L6914,3458L6864,3424.5L6810,3390L6794,3402L6783,3407L6770,3407L6759,3400L6749,3390L6731,3411L6723,3434L6693,3517L6674,3579.44L6659,3631L6675,3657L6702,3685L6712,3707L6712,3751L6665,3782L6588.99,3825.22L6502.66,3874.24L6446,3906L6405,3939L6385.92,3915.92L6346.51,3876.51L6303.24,3836.62L6271,3807L6189.63,3743L6177,3732.77L6130,3693L6113.9,3662.5L6099.48,3637L6071.52,3588.96L6057,3565L6071,3550L6098,3531L6135,3524L6139.79,3488.58L6141.72,3443.51L6144,3386L6136,3315L6129,3319L6118,3317L6105,3300L6091,3270Z" style="fill:rgb(240,223,195);"/>
            <clipPath id="_clip3">
                <path id="Hoodie1" serif:id="Hoodie" d="M6091,3270L6057,3272L6014,3272L5962,3270L5928,3272L5885,3282L5866,3295L5843,3312L5822,3320L5805,3336L5789,3360L5775,3393L5762,3433L5750,3441L5727,3467L5715,3474L5688,3487L5668,3507L5647,3540L5617,3581L5595,3604L5586,3613L5586,3625L5595,3637L5617,3643L5642,3651L5701,3681L5757,3714L5866,3771L5940,3807L5979,3829L6000,3849L6023,3904L6039,3939L6057,3971L6067,4000L6082,3993L6093,4000L6107,4019L6122,4034L6153,4056L6180,4074L6183,4099L6183,4145L6180,4200L6177,4229L6245,4131L6245,4200L6218.83,4323L6303.24,4200L6321,4287L6502.66,4216.26L6390,4287L6659,4229L6667,4172L6674,4131L6678,4094L6687,4080L6719,4056L6763,4027L6774,4023L6774,3965L6769,3936L6774,3930L6806,3923L6894,3891L6988,3849L7075,3812L7100,3799L7111,3782L7111,3762L7100,3738L7075,3707L7049,3662.5L7034,3637L7022,3591L7007,3540L6996,3523L6966,3500L6914,3458L6864,3424.5L6810,3390L6794,3402L6783,3407L6770,3407L6759,3400L6749,3390L6731,3411L6723,3434L6693,3517L6674,3579.44L6659,3631L6675,3657L6702,3685L6712,3707L6712,3751L6665,3782L6588.99,3825.22L6502.66,3874.24L6446,3906L6405,3939L6385.92,3915.92L6346.51,3876.51L6303.24,3836.62L6271,3807L6189.63,3743L6177,3732.77L6130,3693L6113.9,3662.5L6099.48,3637L6071.52,3588.96L6057,3565L6071,3550L6098,3531L6135,3524L6139.79,3488.58L6141.72,3443.51L6144,3386L6136,3315L6129,3319L6118,3317L6105,3300L6091,3270Z"/>
            </clipPath>
            <g clip-path="url(#_clip3)">
                <path d="M6085.21,3540L6023,3515L5945,3477L5945,3509.06L5973.25,3536L6012,3570L6067,3614L6130.08,3650L6130.08,3693.07L6083,3658.69L6015,3607.98L5973.25,3576.45L5943,3549L5919.71,3524.68L5893.53,3484.74L5858.43,3424.5L5861,3362L5870,3329L5886,3317L5864,3317L5857,3336L5839,3395L5834,3448L5851,3495L5886,3544L5919.71,3606L5955,3650L6000,3693.07L6063,3720.63L6165,3796.5L6249,3843L6295,3885.38L6336,3916.5L6361,3936.5L6371,3945L6361,3963L6336,3945L6295,3926L6265,3893L6216,3853.67L6157,3836.91L6112,3791L6057,3755.25L6015,3720.63L5967,3676.52L5919.71,3637L5876.93,3607.98L5834,3599L5846,3621L5851,3662.5L5879.59,3681L5912.5,3707L5955,3739.26L5898,3720.63L5843,3700L5824,3697L5808,3681L5792,3676.52L5775,3681L5772,3693L5792,3713L5813,3720.63L5886,3743L5993,3780L6050,3802L6098.5,3853.67L6130.08,3888L6157,3896L6230,3916.5L6283,3939L6331,3963.73L6354,3971L6314.5,3993L6270,4008L6253,4011L6243,4023L6243,4038L6270,4055L6354,4104L6394,4134L6352,4112L6277,4078.1L6216,4049L6230,4075L6260,4091L6310,4127.82L6342,4160L6405,4201L6361,4194L6310,4188L6283,4172L6249,4149L6230,4134L5886,3993L5486,3599L5608.5,3251L6015,3178L6331,3202L6230,3565L6085.21,3540Z" style="fill:rgb(180,167,144);stroke:rgb(180,167,144);stroke-width:8.33px;"/>
                <path d="M6689,3836.91L6659,3843L6610,3862L6549,3896L6482,3939L6426,3977L6366,4005.5L6314.5,4026.64L6277,4042L6322,4042L6352,4026.64L6394,4000L6416,3987.5L6463,3968L6509.26,3945L6561.84,3918.18L6606,3893L6627,3869.88L6692,3843L6723,3830L6770,3812L6794.5,3796.5L6823,3764.95L6850,3739L6877.5,3707L6840,3734L6805,3751L6774.5,3755.25L6754,3782L6718,3815.46L6703.3,3838.26L6689,3836.91Z" style="fill:rgb(180,167,144);stroke:rgb(180,167,144);stroke-width:8.33px;"/>
                <path d="M6554,4242L6556,4210L6572,4168L6606,4126L6652,4107.14L6687,4080L6729.73,4049L6756.97,4031.22L6737,4031.22L6687,4049L6606,4085L6544,4112L6525,4120.57L6488,4134L6436,4156L6416,4150L6399,4134L6409,4134L6430,4126L6463,4107.14L6511,4085L6525,4064L6539,4040L6463,4040L6409,4049L6374,4057L6352,4057L6374,4040L6421,4014.93L6488,3998.69L6539,3987.5L6610,3959L6676,3945L6737,3921L6806,3901.5L6896,3867.1L6856,3867.1L6818,3876L6774.5,3885.38L6794.5,3867.1L6856,3838.26L6911.5,3829L6985,3823.2L7015,3812L7060,3782L7091.32,3764.95L7133,3751L7038.5,4168L6748,4423L6556,4260L6554,4242Z" style="fill:rgb(180,167,144);stroke:rgb(180,167,144);stroke-width:8.33px;"/>
                <path d="M6890.5,3520L6890.5,3541L6882.82,3560L6877.5,3568L6882.82,3587L6887,3610L6877.5,3642L6916,3606L6926,3532L6890.5,3520Z" style="fill:rgb(180,167,144);stroke:rgb(180,167,144);stroke-width:8.33px;"/>
                <path d="M6991,3580L6969,3621L6937,3653L6909,3686L6890.5,3725L6869,3759L6841,3796.5L6874,3780L6922,3759L6937,3748L6937,3739L6926,3725L6932,3713L6944,3701L6991,3701L6999.37,3697L7018,3701L7030,3713L7045.52,3739L7060,3751L7070,3748L7075,3736L7075,3720.63L7060,3707L7042.69,3678.58L7024,3653L7013.35,3633.31L7007,3597L7002,3621L6999.37,3659L6991,3646L6991,3580Z" style="fill:rgb(180,167,144);stroke:rgb(180,167,144);stroke-width:8.33px;"/>
                <path d="M6752,3424.5L6783.79,3455L6807,3485L6826,3525L6829,3549L6794.5,3633L6748,3707L6688,3621L6675,3576L6723,3461L6752,3424.5Z" style="fill:rgb(180,167,144);stroke:rgb(180,167,144);stroke-width:8.33px;"/>
                <path d="M6850,3452L6824,3437L6783.79,3413L6787.89,3408.58L6824,3424.5L6890.5,3475L6850,3452Z" style="fill:rgb(180,167,144);stroke:rgb(180,167,144);stroke-width:8.33px;"/>
                <path d="M5926,3565.75L5945.5,3606L5980,3656.5L6009,3697L6037.5,3709.47L6009,3686L5980,3637L5950,3596L5926,3565.75Z" style="fill:rgb(180,167,144);stroke:rgb(180,167,144);stroke-width:8.33px;"/>
                <path d="M6735,3520L6723,3553L6708,3590L6714.5,3600L6742.5,3606L6770,3618.95L6783.79,3606L6774.5,3590L6752,3540L6735,3520Z" style="fill:rgb(180,167,144);stroke:rgb(180,167,144);stroke-width:8.33px;"/>
                <path d="M6057,3565L6043,3540L6023,3496L6004,3448L6000,3413L6015,3435L6050,3466L6061,3480L6077,3466L6098.54,3441L6104,3424.5L6098.54,3398L6087,3381L6087,3369L6098.54,3345L6109,3327L6115.75,3314.05L6143.5,3287L6197,3340L6179,3626L6057,3565Z" style="stroke:black;stroke-width:8.33px;"/>
                <path d="M6850,3452L6872,3485L6890.5,3520L6898,3544L6904,3578L6904,3612L6890.5,3626L6868,3648L6791,3692L6752,3717L6770,3694L6791,3652L6805,3612L6817,3572L6829,3549L6812,3567L6791,3612L6770,3656.5L6752,3686L6744,3697L6736,3679L6714.5,3637L6697,3606L6682,3578L6690,3549L6723,3480L6744,3440L6752,3449L6770,3480L6791,3503L6823,3541L6805,3516L6781,3485L6770,3462L6748,3434L6752,3424.5L6765,3416L6781,3416L6794,3402L6736,3379L6682,3449L6627,3637L6655,3748L6712,3751L6748,3733L6817,3686L6877.5,3648L6918,3612L6959,3567L6962,3549L6959,3524L6953.64,3538L6941,3524L6918,3500L6890.5,3475L6850,3452Z" style="stroke:black;stroke-width:8.33px;"/>
                <path d="M6029,3302L6015,3311L6000,3311L5979,3317L5968,3326L5955,3336L5920,3346L5873,3362L5873,3353L5876.93,3332L5886,3317L5870,3329L5861,3362L5857,3405L5857,3422L5873,3450L5899,3494L5926,3534L5945,3549L5926,3526L5904,3485L5892,3459L5892,3439L5911,3413L5931.5,3395L5945,3377L5973.25,3340L5987,3329L6008,3317L6029,3302Z" style="stroke:black;stroke-width:8.33px;"/>
                <path d="M5955,3815.46L6008,3843L6082,3885.38L6143.5,3922L6168,3930.5L6228,3950L6290,3971L6323,3983.5L6340,3979L6365,3963L6400.88,3933.96L6463,3896L6424,3926L6384,3961L6340,3993L6305,4005.5L6276,4014.93L6268,4023L6264,4033L6256,4026.64L6260,4014.93L6270,4008L6260,4000L6224,3987.5L6180,3967L6143.5,3954L6104,3930.5L6071,3908.34L6026,3876L6008,3867.1L6026,3903.28L6048,3930.5L6080,3954L6119,3987.5L6176,4023L6251,4057L6305,4085L6354,4112L6300,4088L6228,4057L6176,4033L6130.08,4012L6094.41,4001.91L6067,4005.5L6011,3945L5955,3815.46Z" style="stroke:black;stroke-width:8.33px;"/>
                <path d="M6810,3390L6846,3419L6900,3456.5L6957,3499L6986,3525L6999.37,3555L7007,3597L7014,3637L7017,3672L7021.95,3693L7021.95,3673.81L7024,3653L7038.5,3673.81L7065,3704L7087,3725L7108,3755.45L7108,3772L7096.93,3786.97L7084,3796.5L7034,3814L6969,3833L6852,3878L6758,3921L6701,3954L6657,3976L6594,3998.69L6554,4014.93L6526,4033L6493,4045L6532,4038L6565,4026.64L6587.75,4014.93L6570,4038L6548,4058L6514,4077L6463,4107.14L6514,4087L6554,4061L6594,4033L6615,4019L6659,3993L6706,3976L6747,3965L6758,3967L6764,3976L6756,3987.5L6734,4003L6692,4028L6722,4019L6740,4014L6761.48,4028L7038.5,3965L7209,3772L7162,3445L6972.5,3350L6810,3390Z" style="stroke:black;stroke-width:8.33px;"/>
                <path d="M6104,3297.86L6089,3313L6052,3336L6025,3360L6018,3371L6034,3371L6037.5,3366L6054,3366L6064,3371L6080,3360L6103.77,3336L6115.75,3314.05L6104,3297.86Z" style="stroke:black;stroke-width:8.33px;"/>
                <path d="M5945,3549L5970,3574L6019,3611L6080,3656.5L6130,3693" style="fill:none;stroke:black;stroke-width:8.33px;"/>
                <path d="M6057,3293L6029,3302" style="fill:none;stroke:black;stroke-width:8.33px;"/>
                <path d="M5886,3317L5901,3309L5939,3302" style="fill:none;stroke:black;stroke-width:8.33px;"/>
                <path d="M6012,3360L6002,3379L5997,3397L6000,3413" style="fill:none;stroke:black;stroke-width:8.33px;"/>
                <path d="M6009,3693L6067,3751L6112,3791L6157,3836.91" style="fill:none;stroke:black;stroke-width:8.33px;"/>
                <path d="M6394,4134L6373,4121.96L6354,4112" style="fill:none;stroke:black;stroke-width:8.33px;"/>
                <path d="M6277,3888L6300,3911L6327,3926L6352,3945" style="fill:none;stroke:black;stroke-width:8.33px;"/>
                <path d="M6416,3987.5L6463,3968L6521.33,3939L6581,3908.34L6606,3893" style="fill:none;stroke:black;stroke-width:8.33px;"/>
                <path d="M6409,4134L6430,4126L6463,4107.14" style="fill:none;stroke:black;stroke-width:8.33px;"/>
                <path d="M6525,4120.57L6544,4102L6576,4080.5L6610,4064" style="fill:none;stroke:black;stroke-width:8.33px;"/>
                <path d="M5762,3433L5757,3452L5757,3477" style="fill:none;stroke:black;stroke-width:8.33px;"/>
                <g transform="matrix(1.21569,0,0,1,-1372.88,-18)">
                    <path d="M6551,3908.34L6560,3899L6569,3896L6579,3896L6592.14,3901.5L6597,3911L6597,3924L6592.14,3936.5L6579,3945L6567.5,3945L6554,3940.25L6548,3930.5L6546,3922L6551,3908.34Z" style="stroke:black;stroke-width:7.49px;"/>
                </g>
                <path d="M6154.37,3834.22L6148,3841L6140,3851.76L6143.5,3867.1L6148,3882.53L6162,3891L6202,3891L6209,3882.53L6209,3869.88L6205,3853.67L6200,3843L6187,3834.22L6175.5,3831L6154.37,3834.22Z" style="stroke:black;stroke-width:8.33px;"/>
                <path d="M6153,3843L6162,3838.33L6175,3838.33L6189,3843L6202,3853.67L6205,3867.1L6205,3885.38L6212.61,3945L6215.61,4009L6224,4126.62L6218.43,4204.62L6201.53,4232.62L6175,4228.67L6179,4107.69L6168.5,4005.5L6162,3936.5L6153,3885.38L6148,3867.1L6146,3856L6153,3843Z" style="fill:rgb(240,223,195);stroke:black;stroke-width:16.67px;"/>
                <g transform="matrix(-1,0,0,1,12792.5,45.5287)">
                    <path d="M6153,3843L6162,3838.33L6175,3838.33L6189,3843L6202,3853.67L6205,3867.1L6205,3885.38L6198.61,3945L6194.61,4009L6191,4126.62L6185.43,4204.62L6168.53,4232.62L6142,4228.67L6146,4107.69L6147.5,4005.5L6148,3936.5L6153,3885.38L6148,3867.1L6146,3856L6153,3843Z" style="fill:rgb(240,223,195);stroke:black;stroke-width:16.67px;"/>
                </g>
            </g>
            <path id="Hoodie2" serif:id="Hoodie" d="M6091,3270L6057,3272L6014,3272L5962,3270L5928,3272L5885,3282L5866,3295L5843,3312L5822,3320L5805,3336L5789,3360L5775,3393L5762,3433L5750,3441L5727,3467L5715,3474L5688,3487L5668,3507L5647,3540L5617,3581L5595,3604L5586,3613L5586,3625L5595,3637L5617,3643L5642,3651L5701,3681L5757,3714L5866,3771L5940,3807L5979,3829L6000,3849L6023,3904L6039,3939L6057,3971L6067,4000L6082,3993L6093,4000L6107,4019L6122,4034L6153,4056L6180,4074L6183,4099L6183,4145L6180,4200L6177,4229L6245,4131L6245,4200L6218.83,4323L6303.24,4200L6321,4287L6502.66,4216.26L6390,4287L6659,4229L6667,4172L6674,4131L6678,4094L6687,4080L6719,4056L6763,4027L6774,4023L6774,3965L6769,3936L6774,3930L6806,3923L6894,3891L6988,3849L7075,3812L7100,3799L7111,3782L7111,3762L7100,3738L7075,3707L7049,3662.5L7034,3637L7022,3591L7007,3540L6996,3523L6966,3500L6914,3458L6864,3424.5L6810,3390L6794,3402L6783,3407L6770,3407L6759,3400L6749,3390L6731,3411L6723,3434L6693,3517L6674,3579.44L6659,3631L6675,3657L6702,3685L6712,3707L6712,3751L6665,3782L6588.99,3825.22L6502.66,3874.24L6446,3906L6405,3939L6385.92,3915.92L6346.51,3876.51L6303.24,3836.62L6271,3807L6189.63,3743L6177,3732.77L6130,3693L6113.9,3662.5L6099.48,3637L6071.52,3588.96L6057,3565L6071,3550L6098,3531L6135,3524L6139.79,3488.58L6141.72,3443.51L6144,3386L6136,3315L6129,3319L6118,3317L6105,3300L6091,3270Z" style="fill:none;stroke:black;stroke-width:16.67px;"/>
            <path id="Cou" d="M6723,3434L6693,3517L6675,3576L6659,3631L6675,3657L6702,3685L6712,3707L6712,3751L6665,3782L6563,3840L6489,3882L6446,3906L6405,3939L6387,3917L6345,3875L6271,3807L6182,3737L6130,3693L6111,3657L6077,3598L6057,3565L6071,3550L6098,3531L6135,3524L6140,3487L6144,3386L6153,3417L6185,3478L6242,3570L6298,3652L6320,3685L6335,3699L6350,3705L6374,3707L6403,3705L6429,3696L6460,3681L6511,3643L6595,3578L6659,3529L6682,3505L6699,3473L6723,3434Z" style="fill:rgb(214,142,89);"/>
            <clipPath id="_clip4">
                <path id="Cou1" serif:id="Cou" d="M6723,3434L6693,3517L6675,3576L6659,3631L6675,3657L6702,3685L6712,3707L6712,3751L6665,3782L6563,3840L6489,3882L6446,3906L6405,3939L6387,3917L6345,3875L6271,3807L6182,3737L6130,3693L6111,3657L6077,3598L6057,3565L6071,3550L6098,3531L6135,3524L6140,3487L6144,3386L6153,3417L6185,3478L6242,3570L6298,3652L6320,3685L6335,3699L6350,3705L6374,3707L6403,3705L6429,3696L6460,3681L6511,3643L6595,3578L6659,3529L6682,3505L6699,3473L6723,3434Z"/>
            </clipPath>
            <g clip-path="url(#_clip4)">
                <path d="M6699.06,3500.22L6659,3549L6606,3606L6539,3683.63L6506,3720.63L6479,3739L6436,3776.15L6405,3791L6383,3791L6390,3822L6405,3844L6431,3844L6479,3849L6511,3802L6539,3748L6555,3720.63L6601,3662.5L6555,3728.57L6539,3776.15L6502.66,3874.24L6645.03,3793.35L6631.38,3748L6631.38,3716L6621,3755.25L6596,3802L6606,3764.95L6638.27,3686L6659,3628L6687.78,3534.16L6699.06,3500.22Z" style="fill:rgb(248,200,148);stroke:rgb(248,200,148);stroke-width:8.33px;"/>
                <path d="M6138.02,3569.5L6148,3556L6157,3552.39L6167,3556L6178,3581L6191,3642.08L6202,3683.63L6229.48,3769.63L6273.18,3809L6258,3764.95L6251,3718L6277,3764.95L6303.24,3836.62L6321.79,3853.67L6306,3807L6293,3751L6293,3720.63L6277,3565L6167,3310.28L6115.75,3360L6124,3486L6132,3565L6138.02,3569.5Z" style="fill:rgb(181,114,65);stroke:rgb(181,114,65);stroke-width:8.33px;"/>
                <path d="M6444,3907.61L6475,3858L6511,3802L6539,3748" style="fill:none;stroke:black;stroke-width:8.33px;"/>
                <path d="M6358,3807L6376,3825L6390,3849" style="fill:none;stroke:black;stroke-width:8.33px;"/>
                <path d="M6202,3686L6215,3728.57L6231.77,3776.15" style="fill:none;stroke:black;stroke-width:8.33px;"/>
                <path d="M6156.93,3424.5L6183,3477L6216.89,3550L6258,3637L6284,3686L6293,3720.63L6331,3751L6343,3771L6358,3776.15L6385,3764.95L6444,3728.57L6483,3699L6546,3642L6627,3569.48L6682,3505L6192.41,3413L6156.93,3424.5Z" style="stroke:black;stroke-width:8.33px;"/>
                <path d="M6667.37,3600.72L6649,3656.5L6637,3689.5L6627,3724L6627,3739.26L6637,3709.47L6652,3684L6663.07,3637.61L6667.37,3600.72Z" style="stroke:black;stroke-width:8.33px;"/>
                <path d="M6130.08,3526L6130,3558L6124,3590L6127,3617L6135,3587L6140,3558L6140,3483.6L6130.08,3526Z" style="stroke:black;stroke-width:8.33px;"/>
                <path d="M6118,3617L6101.25,3640.14L6118,3667.17L6118,3617Z" style="stroke:black;stroke-width:8.33px;"/>
                <path d="M6669.55,3648.14L6675,3673.81L6689,3693L6711.21,3705.26L6695.78,3678.55L6669.55,3648.14Z" style="stroke:black;stroke-width:8.33px;"/>
            </g>
            <path id="Cou2" serif:id="Cou" d="M6723,3434L6693,3517L6675,3576L6659,3631L6675,3657L6702,3685L6712,3707L6712,3751L6665,3782L6563,3840L6489,3882L6446,3906L6405,3939L6387,3917L6345,3875L6271,3807L6182,3737L6130,3693L6111,3657L6077,3598L6057,3565L6071,3550L6098,3531L6135,3524L6140,3487L6144,3386L6153,3417L6185,3478L6242,3570L6298,3652L6320,3685L6335,3699L6350,3705L6374,3707L6403,3705L6429,3696L6460,3681L6511,3643L6595,3578L6659,3529L6682,3505L6699,3473L6723,3434Z" style="fill:none;stroke:black;stroke-width:8.33px;"/>
            <path id="Visage" d="M6886,3139L6896,3136L6909,3139L6920,3148L6926,3163L6926,3233L6922,3253L6909,3284L6886,3311L6847,3350L6810,3390L6794,3402L6783,3407L6770,3407L6759,3400L6749,3390L6731,3411L6723,3434L6699,3473L6682,3505L6659,3529L6582.44,3587.72L6511,3643L6460,3681L6429,3696L6403,3705L6374,3707L6350,3705L6335,3699L6320,3685L6300.16,3655.24L6264.76,3603.33L6242,3570L6185,3478L6153,3417L6144,3386L6136,3315L6129,3319L6118,3317L6105,3300L6091,3270L6071,3228L6057,3198L6050,3168L6050,3132L6057,3101L6061,3075L6144,2795L6699.06,2698L6847,2795L6886,3139Z" style="fill:rgb(248,200,148);"/>
            <clipPath id="_clip5">
                <path id="Visage1" serif:id="Visage" d="M6886,3139L6896,3136L6909,3139L6920,3148L6926,3163L6926,3233L6922,3253L6909,3284L6886,3311L6847,3350L6810,3390L6794,3402L6783,3407L6770,3407L6759,3400L6749,3390L6731,3411L6723,3434L6699,3473L6682,3505L6659,3529L6582.44,3587.72L6511,3643L6460,3681L6429,3696L6403,3705L6374,3707L6350,3705L6335,3699L6320,3685L6300.16,3655.24L6264.76,3603.33L6242,3570L6185,3478L6153,3417L6144,3386L6136,3315L6129,3319L6118,3317L6105,3300L6091,3270L6071,3228L6057,3198L6050,3168L6050,3132L6057,3101L6061,3075L6144,2795L6699.06,2698L6847,2795L6886,3139Z"/>
            </clipPath>
            <g clip-path="url(#_clip5)">
                <path d="M6650.35,3145L6675,3109L6682,3080L6690.38,3023.5L6690.38,2959L6607.45,2965L6561,2997.25L6539,3015L6516,3043L6504,3064L6496.44,3080L6491.5,3057.26L6498.39,3161L6482,3145L6469,3127L6449.87,3093.68L6439.5,3114L6440.43,3156L6439.5,3210L6419.47,3188L6399,3156L6386,3114L6378.25,3071L6364,3093.68L6352,3127L6345,3167L6308,3109L6287,3065.18L6284,3087L6287,3118L6294.5,3145L6277,3114L6262.5,3083L6255,3055L6239.38,3071L6226,3093.68L6209,3103L6209,3109L6204.88,3127L6211.47,3145L6226,3167L6192,3161L6185,3198L6173,3188L6162,3178L6153,3176.81L6153,3207L6156.62,3300L6168.5,3379L6183,3437L6211.47,3520.72L5876.93,3145L5931.5,2682.17L6890.5,2728.93L6805.49,3029.34L6716,3071L6682,3131.35L6650.35,3145Z" style="fill:rgb(214,142,89);stroke:rgb(214,142,89);stroke-width:8.33px;"/>
                <g id="Bouche">
                    <path d="M6301,3493L6321.79,3490L6352,3490L6399,3498L6419.47,3502L6469,3507L6493,3512L6504,3520L6472,3517L6402,3507L6356.5,3500.08L6317.69,3495.62L6301,3493Z" style="fill:rgb(214,142,89);stroke:rgb(214,142,89);stroke-width:8.33px;"/>
                    <path d="M6342,3540L6348.5,3553L6362,3565L6378.25,3569.48L6413,3569.5L6425,3565L6433.93,3557L6403,3555L6380,3552L6359,3548L6342,3540Z" style="fill:rgb(214,142,89);stroke:rgb(214,142,89);stroke-width:8.33px;"/>
                    <path d="M6342,3540L6359,3548L6380,3552L6403,3555L6433.93,3557" style="fill:none;stroke:black;stroke-width:8.33px;"/>
                    <path d="M6287,3486L6301,3493L6323,3497L6358,3500.22L6398,3507L6463,3515L6509,3518L6518,3515L6529,3518L6520,3522L6482,3520L6431,3512L6374,3502.93L6334.49,3498.06L6306.44,3493.99L6292,3493L6287,3491L6287,3486Z" style="stroke:black;stroke-width:8.33px;"/>
                </g>
                <g id="Nez">
                    <path d="M6376.5,3453L6368,3455L6359,3446L6343,3425.5L6321.79,3399L6309,3384L6306,3374L6307,3360L6324,3331L6350,3292L6370,3265L6370,3251L6364,3239L6352,3227L6341,3210L6304.58,3179.12L6289,3145L6364,3195.85L6370,3202.5L6388,3233L6390.5,3247L6387.17,3265L6383,3280L6378.25,3305L6372.12,3346L6364,3390L6364,3413L6376.5,3430L6380.25,3438L6380.25,3446L6376.5,3453Z" style="fill:rgb(214,142,89);stroke:rgb(214,142,89);stroke-width:8.33px;"/>
                    <path d="M6370,3202.5L6381,3221L6388,3233L6390.5,3247L6388,3262L6383,3280" style="fill:none;stroke:black;stroke-width:8.33px;"/>
                    <path d="M6414,3435L6421,3432L6431,3431L6444,3433" style="fill:none;stroke:black;stroke-width:8.33px;"/>
                    <path d="M6364,3413L6376.5,3430L6380.25,3438L6380.25,3446L6376.5,3453L6376.5,3444L6372,3436L6364,3425.5L6364,3413Z" style="stroke:black;stroke-width:8.33px;"/>
                </g>
                <g id="Oeil-droite" serif:id="Oeil droite">
                    <path d="M6531.36,3253.3L6551,3267L6577.25,3274L6610,3280L6637,3283L6662,3278L6682,3267L6693,3244L6637,3260L6531.36,3253.3" style="fill:rgb(214,142,89);stroke:rgb(214,142,89);stroke-width:8.33px;"/>
                    <g transform="matrix(1.25,0,0,1.25,-1671.25,-822.5)">
                        <circle cx="6691" cy="3296" r="6"/>
                    </g>
                    <path d="M6482,3202.5L6472.56,3212.67L6474,3227L6482,3242L6485,3251L6507,3242L6524,3231.5L6551,3227.45L6600,3211L6652.47,3181L6482,3202.5Z" style="fill:rgb(214,142,89);stroke:rgb(214,142,89);stroke-width:8.33px;"/>
                    <path d="M6511,3238L6525,3231L6569,3225L6652.47,3225" style="fill:none;stroke:black;stroke-width:8.33px;"/>
                    <path d="M6502,3256L6515,3248L6529,3242L6549,3244L6583,3244L6619,3242L6663,3238L6683.91,3231.5L6714.5,3233L6686,3251L6661,3264L6631.53,3267L6594,3264L6553,3256L6529,3253L6502,3256Z" style="stroke:black;stroke-width:8.33px;"/>
                    <path d="M6469,3210L6491.5,3198L6525,3188L6589,3178L6658.53,3166L6694,3161L6720.51,3166L6745.89,3184L6716,3178L6690.38,3178L6649,3193L6589,3210L6541.03,3216L6504,3221L6477,3216L6469,3210Z" style="stroke:black;stroke-width:8.33px;"/>
                </g>
                <g id="Oeil-gauche" serif:id="Oeil gauche">
                    <path d="M6314.03,3233L6299.89,3244L6277,3247L6249.33,3247L6224,3241L6204,3231L6191,3216L6185,3198L6185,3182.94L6202,3207.71L6216.89,3224.87L6238,3233L6267,3236L6293,3236L6314.03,3233Z" style="fill:rgb(214,142,89);stroke:rgb(214,142,89);stroke-width:8.33px;"/>
                    <path d="M6333.08,3224.87L6307,3236L6267,3236L6238,3233L6216.89,3224.87L6203.6,3210.26L6189,3187L6185,3161L6233,3172L6310,3202.5L6333.08,3224.87Z" style="fill:white;"/>
                    <clipPath id="_clip6">
                        <path d="M6333.08,3224.87L6307,3236L6267,3236L6238,3233L6216.89,3224.87L6203.6,3210.26L6189,3187L6185,3161L6233,3172L6310,3202.5L6333.08,3224.87Z"/>
                    </clipPath>
                    <g clip-path="url(#_clip6)">
                        <path d="M6238,3173.98C6229,3236 6300,3238 6299.9,3198.5" style="fill:rgb(123,77,155);stroke:black;stroke-width:8.33px;"/>
                        <g transform="matrix(1,0,0,1,0,2)">
                            <ellipse cx="6270.89" cy="3190" rx="16.109" ry="18" style="stroke:black;stroke-width:8.33px;"/>
                        </g>
                        <path d="M6281,3210L6303,3210" style="fill:none;stroke:white;stroke-width:11.11px;"/>
                    </g>
                    <path d="M6206,3212L6216.89,3224L6238,3233L6267,3236L6307,3236" style="fill:none;stroke:black;stroke-width:8.33px;"/>
                    <path d="M6344.5,3227L6335,3214L6329.43,3207.64L6306,3192L6263.1,3174.9L6206,3155L6157,3147L6168.5,3161L6180,3181L6190,3198L6200,3207.64L6206,3212L6197,3198L6190,3178L6191,3169L6215,3172L6268,3190L6311,3207.64L6328,3218L6343,3230L6344.5,3227Z" style="stroke:black;stroke-width:8.33px;"/>
                    <path d="M6345,3205L6331.36,3195L6309,3181L6269,3164L6221.71,3144.8" style="fill:none;stroke:black;stroke-width:8.33px;"/>
                    <path d="M6368,3198L6357.52,3178L6331.36,3156.89L6305,3141L6277,3119L6231.77,3087L6209,3087L6175.57,3099.8L6209,3103L6227,3119L6277,3149L6310,3169L6339,3184L6352,3195L6368,3198Z" style="stroke:black;stroke-width:8.33px;"/>
                </g>
                <g id="Oreille-droite" serif:id="Oreille droite">
                    <path d="M6899.94,3252.2L6896,3242L6888,3231L6875,3221L6859,3210L6849.22,3207L6869.82,3185L6890.5,3172L6899.94,3173.8L6906,3188L6906,3213L6904,3238L6899.94,3252.2Z" style="fill:rgb(214,142,89);stroke:rgb(214,142,89);stroke-width:8.33px;"/>
                    <path d="M6777.83,3343.35L6807,3332.57L6817.66,3324L6838,3317L6853,3308L6866,3293L6869.82,3277L6869.82,3258L6863,3247L6849.22,3240L6838,3238L6827.89,3240L6819,3256L6822.91,3267L6825,3277L6825,3293L6815.45,3309.5L6799.68,3324L6783.79,3336L6777.83,3343.35Z" style="fill:rgb(214,142,89);stroke:black;stroke-width:8.33px;"/>
                    <path d="M6770,3353L6783.79,3336L6801,3323L6815,3310.28L6825,3293L6825,3277L6822.91,3267L6819,3256L6829,3238L6849.22,3207L6869.82,3185L6890.5,3172L6900.98,3174L6906,3188L6906,3213L6904,3238L6898,3259L6890.5,3273" style="fill:none;stroke:black;stroke-width:8.33px;"/>
                    <path d="M6899.94,3252.2L6896,3242L6888,3231L6875,3221" style="fill:none;stroke:black;stroke-width:8.33px;"/>
                </g>
                <g id="Oreille-gauche" serif:id="Oreille gauche">
                    <path d="M6132,3273L6124,3247L6109.63,3230L6090,3212L6083,3202.5L6075.67,3182.61L6078,3161L6090,3145L6108.13,3137.4L6119.5,3145L6127,3202.5L6134.77,3247L6132,3273" style="fill:rgb(181,114,65);stroke:black;stroke-width:8.33px;"/>
                    <path d="M6066.87,3161L6066.87,3136L6070,3115L6075.67,3096L6092,3085" style="fill:none;stroke:black;stroke-width:8.33px;"/>
                    <path d="M6136,3315L6134.77,3287L6131.94,3251" style="fill:none;stroke:black;stroke-width:8.33px;"/>
                    <path d="M6066.87,3141L6073,3130L6079.44,3123L6092,3119L6105.22,3109L6086,3083L6075.67,3096L6070,3115L6067,3132L6066.87,3141Z" style="fill:rgb(181,114,65);stroke:black;stroke-width:8.33px;"/>
                </g>
            </g>
            <path id="Visage2" serif:id="Visage" d="M6886,3139L6896,3136L6909,3139L6920,3148L6926,3163L6926,3233L6922,3253L6909,3284L6886,3311L6847,3350L6810,3390L6794,3402L6783,3407L6770,3407L6759,3400L6749,3390L6731,3411L6723,3434L6699,3473L6682,3505L6659,3529L6582.44,3587.72L6511,3643L6460,3681L6429,3696L6403,3705L6374,3707L6350,3705L6335,3699L6320,3685L6300.16,3655.24L6264.76,3603.33L6242,3570L6185,3478L6153,3417L6144,3386L6136,3315L6129,3319L6118,3317L6105,3300L6091,3270L6071,3228L6057,3198L6050,3168L6050,3132L6057,3101L6061,3075L6144,2795L6699.06,2698L6847,2795L6886,3139Z" style="fill:none;stroke:black;stroke-width:16.67px;"/>
            <path id="Cheveux" d="M6759,3336L6770,3284L6785,3208L6785,3164L6770,3147L6748,3119L6770,3124L6748,3102L6759,3102L6759,3078L6741,3106L6723,3124L6734,3102L6741,3057L6723,3078L6696,3119L6679,3134L6642,3153L6666,3130L6691,3097L6712,3049L6718,3001L6689,2994L6661,2990L6685,2985L6657,2981L6634,2985L6647,2973L6630,2978L6630,2968L6618,2973L6595,2965L6598,2971L6575,2963L6545,2961L6532,2963L6523,2976L6519,2997L6519,3028L6525,3057L6534,3084L6545,3102L6526.41,3084L6513,3061L6504,3031L6499,3013L6494,3041L6488,3080L6492,3119L6500,3147L6509,3160L6492,3144L6474,3113L6460,3080L6454,3061L6450,3039L6441,3057L6433,3087L6431,3124L6437,3160L6454,3196L6433,3174L6412,3136L6398,3100L6390,3075L6388,3049L6388,3014L6394,2990L6376,3006L6361,3034L6347,3061L6341,3097L6343,3144L6353,3168L6367,3199L6347,3178L6327,3151L6308,3117L6296,3084L6285,3061L6282,3023L6282,2978L6271,2983L6253,3006L6229,3045L6222,3073L6218,3117L6222,3147L6207,3124L6193,3084L6187,3054L6183,3028L6174,3045L6171,3075L6178,3113L6161,3097L6146,3075L6136,3059L6136,3093L6138,3130L6142,3153L6128,3136L6131,3184L6136,3251L6128,3225L6117,3178L6109,3139L6091,3106L6064,3071L6061,3075L6057.15,3100L6050,3089L6037,3068L6035,3089L6037,3112L6042,3127L6029,3108L6020,3075L6020,3039L6026,3008L6010,3023L5985,3036L5953,3045L5976,3031L5994,3013L6010,2981L6012,2943L6016,2903L6020,2889L6004,2906L5983,2933L5971,2953L5964,2981L5962,2953L5966,2921L5979,2889L5998,2862L6016,2850L5994,2850L5960,2848L5935,2840L5904,2828L5930,2832L5958,2834L5981,2828L6004,2818L6024,2802L6012,2799L5993,2791L5979,2779L5960,2757L5950,2734L5947,2719L5958,2734L5974,2744L5994,2748L6016,2746L6044,2734L6070,2714L6082,2699L6067,2679L6050,2642L6042,2618L6042,2588L6050,2566L6048,2588L6057.15,2608L6072,2618L6091,2623L6117,2623L6140,2618L6153,2608L6142,2603L6131,2593L6127,2579L6125,2558L6127,2540L6138,2516L6136,2535L6142,2548L6160,2561L6189,2566L6213,2567L6203,2558L6189,2544L6178,2529L6174,2506L6174,2483L6180,2464L6191,2451L6190,2464L6191,2481L6201,2492L6225,2504L6249,2508L6282,2506L6317,2498L6302,2492L6287,2483L6268,2468L6285,2477L6308,2481L6357,2488L6349,2477L6338,2458L6332,2438L6332,2417L6336,2395L6343,2379L6361,2362L6353,2375L6353,2397L6363,2414L6381,2429L6412,2445L6450,2454L6494,2458L6541,2462L6555,2468L6548,2454L6541,2438L6553,2451L6569,2458L6575,2458L6575,2442L6579,2426L6590,2414L6606,2402L6618,2399L6608,2408L6603,2420L6605,2445L6618,2451L6657,2464L6700,2483L6732,2504L6751,2518L6762,2529L6759,2508L6748,2483L6737,2464L6723,2448L6707,2432L6731,2448L6758,2468L6780,2492L6800,2521L6813,2544L6813,2521L6810,2495L6802,2475L6791,2458L6773,2438L6791,2451L6816,2477L6844,2521L6852,2544L6854,2573L6849,2590L6835,2608L6852,2603L6878,2603L6904,2611L6932,2626L6955,2644L6984,2675L6958,2654L6932,2642L6904,2634L6883,2636L6900,2644L6921,2658L6950,2694L6968,2727L6992,2762L7010,2791L7023,2826L7031,2855L7034,2876L7023,2845L7010,2821L6992,2802L6998,2821L7001,2855L7001,2898L7008,2921L7014,2961L7014,2994L7008,3017L7006,2994L7004,2976L6992,2956L6984,2949L6986,2973L6982,3014L6979,3052L6979,3075L6973,3068L6966,3052L6962,3036L6955,3059L6938,3091L6921,3122L6917.24,3145.74L6909,3139L6896,3136L6886,3139L6868,3153L6838,3178L6820,3201L6805,3233L6791,3269L6773,3312L6759,3336Z" style="fill:rgb(138,75,75);"/>
            <clipPath id="_clip7">
                <path id="Cheveux1" serif:id="Cheveux" d="M6759,3336L6770,3284L6785,3208L6785,3164L6770,3147L6748,3119L6770,3124L6748,3102L6759,3102L6759,3078L6741,3106L6723,3124L6734,3102L6741,3057L6723,3078L6696,3119L6679,3134L6642,3153L6666,3130L6691,3097L6712,3049L6718,3001L6689,2994L6661,2990L6685,2985L6657,2981L6634,2985L6647,2973L6630,2978L6630,2968L6618,2973L6595,2965L6598,2971L6575,2963L6545,2961L6532,2963L6523,2976L6519,2997L6519,3028L6525,3057L6534,3084L6545,3102L6526.41,3084L6513,3061L6504,3031L6499,3013L6494,3041L6488,3080L6492,3119L6500,3147L6509,3160L6492,3144L6474,3113L6460,3080L6454,3061L6450,3039L6441,3057L6433,3087L6431,3124L6437,3160L6454,3196L6433,3174L6412,3136L6398,3100L6390,3075L6388,3049L6388,3014L6394,2990L6376,3006L6361,3034L6347,3061L6341,3097L6343,3144L6353,3168L6367,3199L6347,3178L6327,3151L6308,3117L6296,3084L6285,3061L6282,3023L6282,2978L6271,2983L6253,3006L6229,3045L6222,3073L6218,3117L6222,3147L6207,3124L6193,3084L6187,3054L6183,3028L6174,3045L6171,3075L6178,3113L6161,3097L6146,3075L6136,3059L6136,3093L6138,3130L6142,3153L6128,3136L6131,3184L6136,3251L6128,3225L6117,3178L6109,3139L6091,3106L6064,3071L6061,3075L6057.15,3100L6050,3089L6037,3068L6035,3089L6037,3112L6042,3127L6029,3108L6020,3075L6020,3039L6026,3008L6010,3023L5985,3036L5953,3045L5976,3031L5994,3013L6010,2981L6012,2943L6016,2903L6020,2889L6004,2906L5983,2933L5971,2953L5964,2981L5962,2953L5966,2921L5979,2889L5998,2862L6016,2850L5994,2850L5960,2848L5935,2840L5904,2828L5930,2832L5958,2834L5981,2828L6004,2818L6024,2802L6012,2799L5993,2791L5979,2779L5960,2757L5950,2734L5947,2719L5958,2734L5974,2744L5994,2748L6016,2746L6044,2734L6070,2714L6082,2699L6067,2679L6050,2642L6042,2618L6042,2588L6050,2566L6048,2588L6057.15,2608L6072,2618L6091,2623L6117,2623L6140,2618L6153,2608L6142,2603L6131,2593L6127,2579L6125,2558L6127,2540L6138,2516L6136,2535L6142,2548L6160,2561L6189,2566L6213,2567L6203,2558L6189,2544L6178,2529L6174,2506L6174,2483L6180,2464L6191,2451L6190,2464L6191,2481L6201,2492L6225,2504L6249,2508L6282,2506L6317,2498L6302,2492L6287,2483L6268,2468L6285,2477L6308,2481L6357,2488L6349,2477L6338,2458L6332,2438L6332,2417L6336,2395L6343,2379L6361,2362L6353,2375L6353,2397L6363,2414L6381,2429L6412,2445L6450,2454L6494,2458L6541,2462L6555,2468L6548,2454L6541,2438L6553,2451L6569,2458L6575,2458L6575,2442L6579,2426L6590,2414L6606,2402L6618,2399L6608,2408L6603,2420L6605,2445L6618,2451L6657,2464L6700,2483L6732,2504L6751,2518L6762,2529L6759,2508L6748,2483L6737,2464L6723,2448L6707,2432L6731,2448L6758,2468L6780,2492L6800,2521L6813,2544L6813,2521L6810,2495L6802,2475L6791,2458L6773,2438L6791,2451L6816,2477L6844,2521L6852,2544L6854,2573L6849,2590L6835,2608L6852,2603L6878,2603L6904,2611L6932,2626L6955,2644L6984,2675L6958,2654L6932,2642L6904,2634L6883,2636L6900,2644L6921,2658L6950,2694L6968,2727L6992,2762L7010,2791L7023,2826L7031,2855L7034,2876L7023,2845L7010,2821L6992,2802L6998,2821L7001,2855L7001,2898L7008,2921L7014,2961L7014,2994L7008,3017L7006,2994L7004,2976L6992,2956L6984,2949L6986,2973L6982,3014L6979,3052L6979,3075L6973,3068L6966,3052L6962,3036L6955,3059L6938,3091L6921,3122L6917.24,3145.74L6909,3139L6896,3136L6886,3139L6868,3153L6838,3178L6820,3201L6805,3233L6791,3269L6773,3312L6759,3336Z"/>
            </clipPath>
            <g clip-path="url(#_clip7)">
                <path d="M6053.61,2629L6088,2666L6132,2702L6176,2708L6231.77,2702L6294.5,2698L6364,2676L6314.5,2703.43L6255.5,2728L6211.5,2735.34L6153,2735.34L6202,2772L6202,2788.5L6162,2814L6124,2846L6083,2896.91L6057,2915L6037.5,2946.75L6025.5,2996.22L6043,2997.82L6067,2973.44L6104,2907L6140,2867.83L6170,2840L6195.75,2814L6216.5,2798L6235.44,2789.79L6209,2803.78L6183,2846L6162,2890L6162,2936L6183,2896.91L6209,2855L6229,2840L6209,2903L6209,2929L6225,2907L6239.38,2870L6263.16,2840L6248,2883.22L6235.44,2920.07L6232.05,2948.5L6235.44,2969.9L6242,2986L6260,3004L6263.16,3178L6115.75,3332.57L5912.5,3159L5816,3020.5L5912.5,2666L6053.61,2629Z" style="fill:rgb(65,38,38);stroke:rgb(65,38,38);stroke-width:8.33px;"/>
                <g transform="matrix(1,0,0,1,343.5,-27)">
                    <path d="M5891.94,2799L5818.5,2841L5786.09,2870.63L5740,2921L5717,2949L5698,2980L5684,3019L5734,2986L5796,2899L5818.5,2883L5853,2850L5867,2827L5902,2799L5891.94,2799Z" style="fill:rgb(65,38,38);stroke:rgb(65,38,38);stroke-width:11.11px;"/>
                </g>
                <path d="M6119.5,2651L6175,2651L6218.77,2641L6277,2630.56L6269.09,2566.5L6244,2561L6209,2543L6197,2524L6168,2460L6090,2513L6060,2625L6090,2645.89L6119.5,2651Z" style="fill:rgb(65,38,38);stroke:rgb(65,38,38);stroke-width:8.33px;"/>
                <path d="M6621,2479L6652.47,2478L6690.38,2490L6732,2504L6690.38,2461L6614,2439L6614,2465L6621,2479Z" style="fill:rgb(65,38,38);stroke:rgb(65,38,38);stroke-width:8.33px;"/>
                <path d="M6972.73,2766L6956.39,2750L6932,2738.54L6919.14,2728.93L6901.75,2716L6936,2753L6956.39,2782.66L6969,2812L6976.79,2840L7001,2876L7053,2834L6976.79,2782.66L6972.73,2766Z" style="fill:rgb(65,38,38);stroke:rgb(65,38,38);stroke-width:8.33px;"/>
                <path d="M6426.12,2844.12L6390,2870L6354,2907L6339,2958L6314.5,3020.5L6299.89,3087L6299.89,3141L6277,3029.34L6294.5,2924.5L6352,2870L6436,2829L6426.12,2844.12Z" style="fill:rgb(102,54,54);stroke:rgb(102,54,54);stroke-width:8.33px;"/>
                <path d="M6321.79,2728.93L6299.89,2753L6274,2793L6260,2812L6299.89,2785L6335.94,2777L6394,2760L6345,2799.5L6299.89,2834L6260,2881.5L6314.5,2849L6378.25,2807L6469,2760L6416.12,2799.5L6374,2846L6335.94,2876L6274,2948.5L6260,3004L6245.55,2989.55L6236.88,2973.44L6231.77,2948.5L6236,2916L6255,2863.26L6263.16,2840L6239.38,2872.5L6223,2910L6209,2936L6209.96,2899L6216.89,2870L6229,2840L6255,2793L6294,2753L6321.79,2728.93Z" style="fill:rgb(102,54,54);stroke:rgb(102,54,54);stroke-width:8.33px;"/>
                <path d="M6521.33,2529L6482,2516L6444,2496.5L6405,2475L6378.25,2447L6364,2417L6416.12,2460L6463,2475L6521.33,2475L6569,2489L6584.5,2489L6551,2389L6364,2341L6294.5,2374L6345,2479.65L6383,2508.23L6405,2516L6440.43,2529L6474,2532.62L6521.33,2542.63L6551,2552L6583.36,2566.5L6551,2542.63L6521.33,2529Z" style="fill:rgb(102,54,54);stroke:rgb(102,54,54);stroke-width:8.33px;"/>
                <path d="M6321.79,2630.56L6374,2645.89L6440.43,2651L6504,2658L6567.23,2660.36L6627,2676L6675,2723.27L6675,2829L6652.47,2907L6638,2875L6631.53,2834L6618,2809.07L6603.11,2799.5L6569,2793L6597.78,2793L6638,2799.5L6610,2777L6577.25,2772L6534,2777L6497.55,2788.35L6525,2769L6567.23,2753L6606,2753L6584.5,2741L6541.03,2728.93L6584.5,2728.93L6614,2735.34L6631.53,2741L6600,2715L6560,2690L6511,2682.17L6449.87,2682.17L6421,2676L6354,2660.36L6321.79,2630.56Z" style="fill:rgb(102,54,54);stroke:rgb(102,54,54);stroke-width:8.33px;"/>
                <path d="M6284,2566.5L6299.89,2577L6321.79,2572L6352,2563L6378.25,2561L6421,2563L6469,2572L6424,2574L6378.25,2581L6348.5,2593L6396,2593L6463,2607.25L6405,2612L6345,2604L6314.5,2593L6292,2586L6284,2566.5Z" style="fill:rgb(102,54,54);stroke:rgb(102,54,54);stroke-width:8.33px;"/>
                <path d="M6594.05,2555.5L6577.25,2531L6551,2513L6511,2496.5L6567.23,2513L6614,2543L6659,2566.5L6690.38,2607.25L6703,2641L6631.53,2582.2L6594.05,2555.5Z" style="fill:rgb(102,54,54);stroke:rgb(102,54,54);stroke-width:8.33px;"/>
                <path d="M6504,2593L6551,2604L6600,2621L6635.85,2644.79L6716,2708L6682,2629L6645.03,2586.5L6631.53,2598.23L6645.03,2617L6614,2598.23L6577.25,2593L6534,2586.5L6504,2593Z" style="fill:rgb(102,54,54);stroke:rgb(102,54,54);stroke-width:8.33px;"/>
                <path d="M6546,2822.5L6511,2846L6482,2866.47L6460,2907L6449.87,2929L6439.5,2986L6431,3043L6431,3092.78L6440.43,3156L6534,3172L6491.5,2995L6488,2973.44L6474,3020.5L6474,3100L6462.19,3029.34L6462.19,2973.44L6482,2913L6504,2872.5L6546,2822.5Z" style="fill:rgb(102,54,54);stroke:rgb(102,54,54);stroke-width:8.33px;"/>
                <path d="M6699.06,3078.57L6732,3023.5L6748,2997.25L6752,2965L6745.89,2912L6774.5,2954L6794.5,2994L6822.91,3039L6822.91,2997.25L6812,2948.5L6794.5,2902L6770,2860L6794.5,2876L6829,2907L6846,2936L6855,2961L6846,2907L6829,2860L6807.58,2826L6846,2866.47L6869.82,2894L6882.82,2920.5L6890.5,2948.5L6890.5,2920.5L6882.82,2881.5L6869.82,2846L6898,2883.22L6922,2936L6911.5,2891L6901.75,2855L6890.5,2822.13L6872.25,2796.5L6898,2817L6924,2846L6936,2866.47L6932,2826L6924,2788.5L6911.5,2765L6950,2822.5L6958,2860L6965,2883.22L6987,2912L6999.37,2958.33L6864,3078.57L6723,3172L6699.06,3114.35L6699.06,3078.57Z" style="fill:rgb(102,54,54);stroke:rgb(102,54,54);stroke-width:8.33px;"/>
                <path d="M6797.12,2651L6833,2641L6869.82,2643.3L6909.2,2658L6976.79,2708L6914,2682.17L6869.82,2676.48L6829,2674.96L6774.5,2687L6829.52,2716L6857.87,2738.54L6873,2760L6887,2785L6844,2753L6801,2733.19L6742.5,2728.93L6783.79,2753L6812,2772L6829.52,2799.5L6797.12,2785L6812,2808L6829,2849L6797.12,2817L6763,2799.5L6723,2788L6752,2825.5L6774.5,2859L6742.5,2840L6711.21,2840L6735,2866.47L6748,2899L6745.89,2916L6714.5,2902L6690.38,2910L6658.53,2936L6658.53,2886L6669.55,2803L6700.46,2716L6770,2664L6797.12,2651Z" style="fill:rgb(102,54,54);stroke:rgb(102,54,54);stroke-width:8.33px;"/>
                <path d="M6523,2976L6532,2949L6550,2923L6577.25,2893L6593,2878L6614,2864L6631,2864L6638,2875L6645.03,2893L6648,2920L6652,2900L6652,2878L6648,2855L6634,2828L6621,2811L6593,2793L6624,2801L6645.03,2813L6659,2840L6654,2816L6641,2789L6624,2772L6606,2760L6631,2766L6652,2779L6667,2797L6663.07,2755L6645.03,2727L6614,2697L6577.25,2680L6550,2676L6507,2676L6532,2666L6582,2658L6627,2666L6667,2686L6690.38,2708L6699.06,2738L6697,2758L6710,2750L6731,2747L6755,2758L6786,2789L6819,2837L6792,2811L6762,2789L6728,2779L6699.06,2779L6684,2789L6680,2805L6680,2813L6687,2805L6703,2805L6723,2813L6742.5,2828L6758,2851L6739,2833L6723,2824L6706,2824L6682,2840L6669.55,2857L6663.07,2889L6678,2870L6694,2864L6710,2864L6728,2878L6745.89,2912L6728,2893L6711.21,2882L6697,2882L6678,2900L6663.07,2923L6654,2949L6654,2965L6667,2941L6684,2923L6694,2920L6706,2923L6714.5,2936L6723,2967L6720,3003L6712,3049L6697,3087L6641,3083.5L6523,2976Z" style="stroke:black;stroke-width:8.33px;"/>
                <path d="M6776,2870L6812,2904L6829.52,2938L6843,2968L6846,3007L6852,3016L6869.82,3023.5L6852,3023.5L6837.14,3013L6825,2987L6815,2960L6804,2931L6794.5,2902L6776,2870Z" style="stroke:black;stroke-width:8.33px;"/>
                <path d="M7001,2898L6993,2878L6976.79,2840L6990,2859L6990,2833L6983,2805L6972.5,2780L6953.64,2753L6983,2773L7034,2807L7065,2898L7001,2898Z" style="stroke:black;stroke-width:8.33px;"/>
                <path d="M6187.95,3058.76L6188,3014L6197,2977L6209,2936L6209,2907L6193,2923L6174,2951L6165,2988L6165,3058.76L6175.57,3099.8L6183,3136L6143.5,3071L6130,3023.5L6127,2981L6132,2954L6112,2974L6083,2993L6060,2996L6064,3021L6066.87,3068L6058.04,3094.25L6047,3071L6043,3042L6025,3058.76L6009,3099.8L6029,3202L6165,3293L6255,3260L6193,3117.75L6187.95,3058.76Z" style="stroke:black;stroke-width:8.33px;"/>
                <path d="M6728,3072.17L6739,3043L6752,3012L6755,2973L6759,2997L6764,3043L6770,3072.17L6770,3106L6774.5,3059L6779,3028L6774.5,2985L6794.5,3007L6805,3028L6812,3047L6812,3078L6819,3059L6819,3017L6829,3028L6846,3035L6868,3035L6882.82,3028L6870.32,3028L6868,3007L6868,2958L6882.82,2980L6898,3012L6905,3053L6916,3028L6934,2985L6940,2941L6940,2894L6953.64,2930L6962,2963L6972.5,3002L6986,3035L6984.31,2973L6976.79,2941L6969,2917L6953.64,2894L6986,2930L6996,2949L7009,2985L7014,3053L6916,3459.62L6645.03,3397L6699.06,3167L6728,3072.17Z" style="stroke:black;stroke-width:8.33px;"/>
                <path d="M6552,2772L6515,2780L6469,2802L6433,2821L6383,2843L6334,2865L6297,2890L6264,2927L6255,2946.75L6255,2965L6260,2997.25L6269,3074L6286.92,3065.01L6286.92,3007L6292,2960L6311,2917L6334,2890L6371,2865L6409,2843L6444,2831L6419.47,2849L6390,2890L6363,2939L6348.5,2986L6342,3036L6341.32,3104.62L6363,3109L6361,3034L6360.73,2986L6374,2946.75L6397,2907L6444,2856L6463,2837L6482,2813L6515,2792L6546.22,2780L6577.25,2772L6552,2772Z" style="stroke:black;stroke-width:8.33px;"/>
                <path d="M6218.77,3100L6218.77,3059L6224,3019L6235,2996L6242,2986L6249,2996L6260,3004L6218.77,3100Z" style="stroke:black;stroke-width:8.33px;"/>
                <path d="M6378.25,3004L6390,2980L6405,2965L6419.47,2952L6433.93,2946.75L6449.87,2929L6460,2907L6474,2894L6465.8,2913L6463,2940.5L6452,2973.39L6452,2946.75L6440,2965L6423,2965L6405,2980L6397,2997L6394,3018L6394,3058L6400,3087L6414,3134L6454,3181L6463,3216L6383,3124L6378.25,3004Z" style="stroke:black;stroke-width:8.33px;"/>
                <path d="M6433.93,3083.5L6436,3054L6444,3010L6452,2965L6452,3002.97L6457,3043L6465.8,3093.68L6433.93,3083.5Z" style="stroke:black;stroke-width:8.33px;"/>
                <path d="M6004.5,3023.5L6021,3002.97L6043,2970L6040,2995L6037.5,3020L6025.5,3039L6007,3071L6004.5,3023.5Z" style="stroke:black;stroke-width:8.33px;"/>
                <path d="M5968,2956L5981.75,2919L6009,2887L6029,2856L6050,2834L6083,2817L6063,2841L6043,2881L6029,2922L6020,2956L6010,2981L5968,2956Z" style="stroke:black;stroke-width:8.33px;"/>
                <path d="M5981.75,2745.55L6012,2753L6043,2750L6066.87,2744L6093,2729L6104,2742L6143.5,2762L6170,2768L6197,2793L6231.77,2791L6250,2785L6270,2777L6294,2753L6273,2762L6237,2762L6197,2759L6163,2753L6132,2737L6096,2705L6074,2677L6057,2643L6049,2610L6060,2625L6077,2643L6113,2651L6143.5,2651L6104,2643L6080,2631L6063.99,2612.6L6096,2612.6L6121,2625L6157,2619.74L6188,2610L6163,2607L6136.5,2598L6109.63,2567L6115.75,2541L6132,2551L6151,2567L6175.62,2577L6197,2583L6250,2583L6231.77,2571L6202,2551L6183,2527L6179,2503L6179,2476L6188,2442L6218.77,2463L6285,2503L6321.79,2506L6358,2509L6405,2521L6374,2503L6357,2488L6311,2456L6128,2389L5834,2571L5981.75,2711L5981.75,2745.55Z" style="stroke:black;stroke-width:8.33px;"/>
                <path d="M6754,2521L6770,2541L6783.79,2557L6774.5,2521L6766,2495L6742.5,2460L6774.5,2486L6794.5,2517L6808,2554L6812,2583L6819,2557L6819,2521L6808,2490L6801,2464L6770,2429L6682,2410L6704,2470L6754,2521Z" style="stroke:black;stroke-width:8.33px;"/>
                <path d="M6000,2793.95L6029,2799L6073,2797L6104,2785L6140,2765L6124,2785L6090,2804L6062,2811L6035,2814L6021,2825.5L5994,2833L5958,2834L5994,2804L6000,2793.95" style="stroke:black;stroke-width:8.33px;"/>
                <path d="M6436,2674L6405,2670L6383,2667.13L6358,2664L6333,2661L6307,2651L6288,2634L6277,2612L6271,2591L6271,2574L6277,2552L6265,2574L6265,2600L6271,2627L6239.38,2627L6223,2621.38L6209,2612L6197,2600L6190.38,2581.14L6190.38,2600L6209,2619.92L6231.77,2634L6255,2648L6288,2658L6251,2658L6292,2670L6329,2674L6358,2678L6374,2686L6352,2690L6321.79,2700L6292,2714L6251,2730L6223,2736L6190.38,2739L6153,2736L6183,2745L6216.89,2750L6260,2744.37L6409,2679.33L6436,2674Z" style="stroke:black;stroke-width:8.33px;"/>
                <path d="M6783.79,2645L6783.79,2619.92L6770,2583L6732.12,2538.29L6748,2574L6765,2613L6765,2645L6758,2672L6748,2690L6752,2666L6750.5,2628L6742.5,2601L6723,2566L6732.12,2601L6738,2637L6732.12,2672L6720,2651L6699.06,2619.92L6669.55,2596L6645.03,2576.31L6622,2562L6601,2543L6577.25,2529L6595,2557L6618,2583L6634,2601L6655,2607.25L6669.55,2628L6688,2651L6699.06,2679L6699.06,2688L6682,2668L6655,2651L6618,2639L6585,2637L6534,2639L6585,2637L6618,2645L6655,2658L6688,2683L6699.06,2705L6703,2736L6720,2732L6794.5,2732L6812,2736L6844,2753L6829,2736L6801,2718L6776,2710L6752,2710L6738,2715L6745.89,2702L6765,2690L6801,2690L6836,2694L6858,2702L6882.82,2715L6858,2694L6837.14,2679L6819,2670L6844,2666L6877.5,2670L6898,2676L6872.31,2663.57L6841,2655L6794.5,2655L6805,2639L6812,2617L6812,2596L6806.09,2617L6794.5,2637L6783.79,2645Z" style="stroke:black;stroke-width:8.33px;"/>
                <path d="M6162,2855L6132,2872.5L6109.63,2898L6083,2927L6073,2946.75L6066.87,2974L6057,2986L6087,2965L6109.63,2940.5L6132,2899L6143.5,2882L6162,2855Z" style="stroke:black;stroke-width:8.33px;"/>
                <path d="M6595.33,2410L6584,2431L6584,2453L6587,2485L6600,2516L6577.25,2494L6571,2477L6569,2458L6574,2406L6595.33,2410Z" style="stroke:black;stroke-width:8.33px;"/>
                <path d="M6610,2447.31L6614,2463L6621,2479L6634,2493L6663.07,2513L6634,2496.5L6614,2479L6600,2455L6600,2435L6606,2417L6610,2447.31Z" style="stroke:black;stroke-width:8.33px;"/>
                <path d="M6904,2634L6886,2629L6861,2629L6829,2641L6856,2641L6886,2646L6915,2661L6936.51,2677.25L6953.64,2700.68L6959.06,2710.61L6947,2703L6926,2685L6945,2709L6973.72,2735.34L6983,2709L6936.51,2661L6904,2634Z" style="stroke:black;stroke-width:8.33px;"/>
                <path d="M6488,3080L6488,3033L6491.5,2977L6498,2936L6511,2903L6541.03,2866L6580,2834L6614,2817L6584.5,2840L6547,2876L6521.33,2913L6507,2936L6501,2965L6499,3013L6498,3055L6488,3080Z" style="stroke:black;stroke-width:8.33px;"/>
                <path d="M6898,2741L6922,2772L6936,2799.5L6950,2829" style="fill:none;stroke:black;stroke-width:8.33px;"/>
                <path d="M6652.47,2738.54L6631.53,2725L6600,2715L6556,2708L6511,2708L6482,2715" style="fill:none;stroke:black;stroke-width:8.33px;"/>
                <path d="M6936,2753L6958,2785L6969,2812L6976.79,2840" style="fill:none;stroke:black;stroke-width:8.33px;"/>
                <path d="M6343,2389L6347,2417L6358,2439L6374,2465L6394,2486L6416,2501L6436,2513" style="fill:none;stroke:black;stroke-width:8.33px;"/>
                <path d="M6882.82,2870L6898,2899L6911.5,2936L6915,2965L6919.14,3020.5" style="fill:none;stroke:black;stroke-width:8.33px;"/>
                <path d="M6197,2793L6157,2817L6130,2840L6098.54,2876L6083,2899L6071,2924L6066.87,2951.01L6067,2973.44" style="fill:none;stroke:black;stroke-width:8.33px;"/>
                <path d="M6618,2583L6584.5,2567L6541.03,2548L6497,2536L6463,2531L6419.47,2531L6390,2539" style="fill:none;stroke:black;stroke-width:8.33px;"/>
                <path d="M6911.5,2876L6906,2855L6893,2826L6877.5,2802L6846,2769" style="fill:none;stroke:black;stroke-width:8.33px;"/>
                <path d="M6242,2986L6236,2973.44L6231.77,2946.75L6236,2916L6248,2883.22L6267,2849L6292,2817L6330,2793L6368,2777" style="fill:none;stroke:black;stroke-width:8.33px;"/>
                <path d="M6431.01,2947.81L6431,2927L6433.93,2898L6441,2872.5L6449.87,2846" style="fill:none;stroke:black;stroke-width:8.33px;"/>
            </g>
            <path id="Cheveux2" serif:id="Cheveux" d="M6759,3336L6770,3284L6785,3208L6785,3164L6770,3147L6748,3119L6770,3124L6748,3102L6759,3102L6759,3078L6741,3106L6723,3124L6734,3102L6741,3057L6723,3078L6696,3119L6679,3134L6642,3153L6666,3130L6691,3097L6712,3049L6718,3001L6689,2994L6661,2990L6685,2985L6657,2981L6634,2985L6647,2973L6630,2978L6630,2968L6618,2973L6595,2965L6598,2971L6575,2963L6545,2961L6532,2963L6523,2976L6519,2997L6519,3028L6525,3057L6534,3084L6545,3102L6526.41,3084L6513,3061L6504,3031L6499,3013L6494,3041L6488,3080L6492,3119L6500,3147L6509,3160L6492,3144L6474,3113L6460,3080L6454,3061L6450,3039L6441,3057L6433,3087L6431,3124L6437,3160L6454,3196L6433,3174L6412,3136L6398,3100L6390,3075L6388,3049L6388,3014L6394,2990L6376,3006L6361,3034L6347,3061L6341,3097L6343,3144L6353,3168L6367,3199L6347,3178L6327,3151L6308,3117L6296,3084L6285,3061L6282,3023L6282,2978L6271,2983L6253,3006L6229,3045L6222,3073L6218,3117L6222,3147L6207,3124L6193,3084L6187,3054L6183,3028L6174,3045L6171,3075L6178,3113L6161,3097L6146,3075L6136,3059L6136,3093L6138,3130L6142,3153L6128,3136L6131,3184L6136,3251L6128,3225L6117,3178L6109,3139L6091,3106L6064,3071L6061,3075L6057.15,3100L6050,3089L6037,3068L6035,3089L6037,3112L6042,3127L6029,3108L6020,3075L6020,3039L6026,3008L6010,3023L5985,3036L5953,3045L5976,3031L5994,3013L6010,2981L6012,2943L6016,2903L6020,2889L6004,2906L5983,2933L5971,2953L5964,2981L5962,2953L5966,2921L5979,2889L5998,2862L6016,2850L5994,2850L5960,2848L5935,2840L5904,2828L5930,2832L5958,2834L5981,2828L6004,2818L6024,2802L6012,2799L5993,2791L5979,2779L5960,2757L5950,2734L5947,2719L5958,2734L5974,2744L5994,2748L6016,2746L6044,2734L6070,2714L6082,2699L6067,2679L6050,2642L6042,2618L6042,2588L6050,2566L6048,2588L6057.15,2608L6072,2618L6091,2623L6117,2623L6140,2618L6153,2608L6142,2603L6131,2593L6127,2579L6125,2558L6127,2540L6138,2516L6136,2535L6142,2548L6160,2561L6189,2566L6213,2567L6203,2558L6189,2544L6178,2529L6174,2506L6174,2483L6180,2464L6191,2451L6190,2464L6191,2481L6201,2492L6225,2504L6249,2508L6282,2506L6317,2498L6302,2492L6287,2483L6268,2468L6285,2477L6308,2481L6357,2488L6349,2477L6338,2458L6332,2438L6332,2417L6336,2395L6343,2379L6361,2362L6353,2375L6353,2397L6363,2414L6381,2429L6412,2445L6450,2454L6494,2458L6541,2462L6555,2468L6548,2454L6541,2438L6553,2451L6569,2458L6575,2458L6575,2442L6579,2426L6590,2414L6606,2402L6618,2399L6608,2408L6603,2420L6605,2445L6618,2451L6657,2464L6700,2483L6732,2504L6751,2518L6762,2529L6759,2508L6748,2483L6737,2464L6723,2448L6707,2432L6731,2448L6758,2468L6780,2492L6800,2521L6813,2544L6813,2521L6810,2495L6802,2475L6791,2458L6773,2438L6791,2451L6816,2477L6844,2521L6852,2544L6854,2573L6849,2590L6835,2608L6852,2603L6878,2603L6904,2611L6932,2626L6955,2644L6984,2675L6958,2654L6932,2642L6904,2634L6883,2636L6900,2644L6921,2658L6950,2694L6968,2727L6992,2762L7010,2791L7023,2826L7031,2855L7034,2876L7023,2845L7010,2821L6992,2802L6998,2821L7001,2855L7001,2898L7008,2921L7014,2961L7014,2994L7008,3017L7006,2994L7004,2976L6992,2956L6984,2949L6986,2973L6982,3014L6979,3052L6979,3075L6973,3068L6966,3052L6962,3036L6955,3059L6938,3091L6921,3122L6917.24,3145.74L6909,3139L6896,3136L6886,3139L6868,3153L6838,3178L6820,3201L6805,3233L6791,3269L6773,3312L6759,3336Z" style="fill:none;stroke:black;stroke-width:16.67px;"/>
        </g>
    </g>
</svg>
